<svg width="60" height="82" viewBox="0 0 60 82" fill="none" xmlns="http://www.w3.org/2000/svg">
<path d="M56.4625 0.981445H2.8375C2.12649 0.981445 1.4442 1.26394 0.941473 1.76667C0.438747 2.2694 0.15625 2.95169 0.15625 3.6627V78.7377C0.15625 79.4487 0.438747 80.131 0.941473 80.6337C1.4442 81.1365 2.12649 81.419 2.8375 81.419H56.4625C57.1735 81.419 57.8558 81.1365 58.3585 80.6337C58.8613 80.131 59.1438 79.4487 59.1438 78.7377V3.6627C59.1438 2.95169 58.8613 2.2694 58.3585 1.76667C57.8558 1.26394 57.1735 0.981445 56.4625 0.981445ZM18.925 70.694C16.7913 70.694 14.7458 69.8465 13.2369 68.3383C11.7287 66.8295 10.8813 64.7839 10.8813 62.6502C10.8813 60.5165 11.7287 58.471 13.2369 56.9621C14.7457 55.4539 16.7913 54.6065 18.925 54.6065C21.0587 54.6065 23.1042 55.4539 24.6131 56.9621C26.1213 58.4709 26.9688 60.5165 26.9688 62.6502C26.9688 64.7839 26.1213 66.8294 24.6131 68.3383C23.1043 69.8465 21.0587 70.694 18.925 70.694ZM18.925 49.2439C16.7913 49.2439 14.7458 48.3965 13.2369 46.8883C11.7287 45.3795 10.8813 43.3339 10.8813 41.2002C10.8813 39.0665 11.7287 37.021 13.2369 35.5121C14.7457 34.0039 16.7913 33.1564 18.925 33.1564C21.0587 33.1564 23.1042 34.0039 24.6131 35.5121C26.1213 37.0209 26.9688 39.0665 26.9688 41.2002C26.9688 43.3339 26.1213 45.3794 24.6131 46.8883C23.1043 48.3965 21.0587 49.2439 18.925 49.2439ZM18.925 27.7939C16.7913 27.7939 14.7458 26.9465 13.2369 25.4383C11.7287 23.9295 10.8813 21.8839 10.8813 19.7502C10.8813 17.6165 11.7287 15.571 13.2369 14.0621C14.7457 12.5539 16.7913 11.7064 18.925 11.7064C21.0587 11.7064 23.1042 12.5539 24.6131 14.0621C26.1213 15.5709 26.9688 17.6165 26.9688 19.7502C26.9688 21.8839 26.1213 23.9294 24.6131 25.4383C23.1043 26.9465 21.0587 27.7939 18.925 27.7939ZM40.375 70.694C38.2413 70.694 36.1958 69.8465 34.6869 68.3383C33.1787 66.8295 32.3313 64.7839 32.3313 62.6502C32.3313 60.5165 33.1787 58.471 34.6869 56.9621C36.1957 55.4539 38.2413 54.6065 40.375 54.6065C42.5087 54.6065 44.5542 55.4539 46.0631 56.9621C47.5713 58.4709 48.4188 60.5165 48.4188 62.6502C48.4188 64.7839 47.5713 66.8294 46.0631 68.3383C44.5543 69.8465 42.5087 70.694 40.375 70.694ZM40.375 49.2439C38.2413 49.2439 36.1958 48.3965 34.6869 46.8883C33.1787 45.3795 32.3313 43.3339 32.3313 41.2002C32.3313 39.0665 33.1787 37.021 34.6869 35.5121C36.1957 34.0039 38.2413 33.1564 40.375 33.1564C42.5087 33.1564 44.5542 34.0039 46.0631 35.5121C47.5713 37.0209 48.4188 39.0665 48.4188 41.2002C48.4188 43.3339 47.5713 45.3794 46.0631 46.8883C44.5543 48.3965 42.5087 49.2439 40.375 49.2439ZM40.375 27.7939C38.2413 27.7939 36.1958 26.9465 34.6869 25.4383C33.1787 23.9295 32.3313 21.8839 32.3313 19.7502C32.3313 17.6165 33.1787 15.571 34.6869 14.0621C36.1957 12.5539 38.2413 11.7064 40.375 11.7064C42.5087 11.7064 44.5542 12.5539 46.0631 14.0621C47.5713 15.5709 48.4188 17.6165 48.4188 19.7502C48.4188 21.8839 47.5713 23.9294 46.0631 25.4383C44.5543 26.9465 42.5087 27.7939 40.375 27.7939Z" fill="#115099"/>
</svg>
