<svg width="89" height="88" viewBox="0 0 89 88" fill="none" xmlns="http://www.w3.org/2000/svg">
<path d="M13.4032 54.4877L62.1632 54.8554C63.4512 54.8554 64.3714 53.5674 63.8189 52.4636C54.4347 33.8796 20.7629 44.3674 20.7629 44.3674C21.3148 40.1351 21.499 35.9034 21.3148 31.8554H48.3628C49.8349 31.8554 51.1229 30.5674 51.1229 29.0952C51.1229 27.6231 49.835 26.3351 48.3628 26.3351H44.3146V25.0471C44.3146 23.5749 43.0267 22.2869 41.5545 22.2869C40.0823 22.2869 38.7943 23.5749 38.7943 25.0471V26.3351H20.7623C19.1073 12.3516 12.6668 1.67906 3.0983 0.207063C1.44262 0.0228824 -0.0295399 0.574784 0.338131 2.0469L13.4032 54.4877Z" fill="#115099"/>
<path d="M14.3221 58.5361C8.98615 58.5361 4.57031 62.952 4.57031 68.288V68.8399C6.77848 67.1842 9.35448 66.2639 12.2981 66.2639C19.29 66.2639 24.9943 71.9677 24.9943 78.96H48.7303C48.7303 71.9682 54.4341 66.2639 61.4265 66.2639C64.9226 66.2639 68.0505 67.5518 70.2588 69.9435C71.179 64.9759 67.131 58.7195 60.6911 58.7195L14.3215 58.7202L14.3221 58.5361Z" fill="#115099"/>
<path d="M88.2906 66.0794C87.5545 64.6072 85.8987 64.0554 84.4265 64.7914L71.5469 71.5996C72.4671 72.7034 73.5709 74.7274 73.9387 77.1199L87.1869 70.1281C88.4748 69.2078 89.0267 67.5514 88.2907 66.0793L88.2906 66.0794Z" fill="#115099"/>
<path d="M12.3011 87.7916C17.2688 87.7916 21.1334 83.7435 21.1334 78.9593C21.1334 73.9916 17.0852 70.127 12.3011 70.127C7.33341 70.127 3.46875 74.1751 3.46875 78.9593C3.46875 83.9276 7.51692 87.7916 12.3011 87.7916ZM12.3011 73.9916C15.0612 73.9916 17.2688 76.1998 17.2688 78.9593C17.2688 81.7195 15.0606 83.927 12.3011 83.927C9.54092 83.927 7.33341 81.7188 7.33341 78.9593C7.33341 76.1998 9.54108 73.9916 12.3011 73.9916Z" fill="#115099"/>
<path d="M61.4261 70.1279C56.4584 70.1279 52.5938 74.1761 52.5938 78.9603C52.5938 83.928 56.6419 87.7926 61.4261 87.7926C66.3937 87.7926 70.2584 83.7444 70.2584 78.9603V78.7761C70.2584 74.3603 66.5781 70.1279 61.4261 70.1279V70.1279ZM61.4261 83.9279C58.6659 83.9279 56.4584 81.7198 56.4584 78.9603C56.4584 76.2001 58.6666 73.9926 61.4261 73.9926C64.3704 73.9926 66.3937 76.3844 66.3937 78.9603C66.5779 81.7204 64.1861 83.9279 61.4261 83.9279Z" fill="#115099"/>
</svg>
