<svg width="80" height="83" viewBox="0 0 80 83" fill="none" xmlns="http://www.w3.org/2000/svg">
<path d="M77.1447 5.77243C76.9709 4.93608 76.5565 4.16957 75.9524 3.56554C75.3483 2.96142 74.581 2.54705 73.7447 2.3725C56.3259 -0.585106 38.5324 -0.585106 21.1127 2.3725C20.2764 2.54706 19.5091 2.96142 18.905 3.56554C18.3009 4.16965 17.8866 4.93616 17.7128 5.77243C15.2312 28.4281 15.2312 51.2877 17.7128 73.9434C17.8866 74.7797 18.3009 75.547 18.905 76.151C19.5092 76.7551 20.2764 77.1695 21.1127 77.3433C30.7602 78.9644 40.5374 79.693 50.3178 79.5191C50.8278 79.5017 51.2907 79.2193 51.5412 78.7754C51.7909 78.3306 51.7909 77.788 51.5419 77.3433C48.9031 72.7935 48.5184 67.2783 50.5007 62.4068C52.483 57.5345 56.6086 53.8551 61.6752 52.4405C66.741 51.0251 72.1765 52.0353 76.3962 55.1757C76.8273 55.5043 77.4049 55.5665 77.8974 55.3388C78.3892 55.1104 78.714 54.6292 78.7421 54.0874C79.46 37.9655 78.9258 21.8126 77.1438 5.77241L77.1447 5.77243ZM47.3607 45.6884H26.9607H26.9614C25.5528 45.6884 24.4114 44.547 24.4114 43.1384C24.4114 41.7306 25.5528 40.5884 26.9614 40.5884H47.3614C48.7692 40.5884 49.9114 41.7306 49.9114 43.1384C49.9114 44.547 48.7692 45.6884 47.3614 45.6884H47.3607ZM26.9607 32.36L26.9614 32.3608C25.8094 32.0891 24.9958 31.0615 24.9958 29.8784C24.9958 28.696 25.8094 27.6684 26.9614 27.3968H67.7614C69.1693 27.3968 70.3114 28.5382 70.3114 29.9468C70.3114 31.3554 69.1693 32.4968 67.7614 32.4968L26.9607 32.36ZM67.7607 17.6042H26.9607L26.9614 17.605C25.5528 17.605 24.4114 16.4628 24.4114 15.055C24.4114 13.6464 25.5528 12.505 26.9614 12.505H67.7614C69.1693 12.505 70.3114 13.6464 70.3114 15.055C70.3114 16.4628 69.1693 17.605 67.7614 17.605L67.7607 17.6042Z" fill="#115099"/>
<path d="M3.77146 31.919L9.95985 31.749C10.8614 31.749 11.7259 32.1072 12.3634 32.7455C13.0016 33.383 13.3598 34.2474 13.3598 35.149C12.7815 44.329 11.694 66.87 15.6382 75.609H15.6375C15.6959 75.7304 15.6579 75.8754 15.5479 75.952C15.4371 76.0279 15.2876 76.0128 15.1958 75.9156C9.47579 70.8012 5.14672 64.3199 2.61343 57.0775C0.0801398 49.8343 -0.574019 42.0673 0.71155 34.5034C0.882309 33.8044 1.27088 33.1776 1.82034 32.7131C2.37055 32.2486 3.0536 31.9709 3.77155 31.9193L3.77146 31.919Z" fill="#115099"/>
<path d="M66.3305 55.4473C62.7233 55.4473 59.2641 56.8801 56.7141 59.4309C54.1633 61.9809 52.7305 65.4402 52.7305 69.0473C52.7305 72.6544 54.1633 76.1136 56.7141 78.6636C59.2641 81.2144 62.7233 82.6473 66.3305 82.6473C69.9376 82.6473 73.3968 81.2144 75.9468 78.6636C78.4976 76.1136 79.9304 72.6544 79.9304 69.0473C79.9304 65.4402 78.4976 61.9809 75.9468 59.4309C73.3968 56.8801 69.9376 55.4473 66.3305 55.4473ZM75.5371 72.8215C73.5464 72.8882 71.5565 72.9338 69.5659 72.9573C69.5424 74.948 69.4968 76.9378 69.43 78.9285C67.3634 79.0006 65.2976 79.0006 63.2312 78.9285C63.1644 76.9378 63.1189 74.948 63.0953 72.9573C61.1047 72.9338 59.1148 72.889 57.1242 72.8215C57.0513 70.7548 57.0513 68.689 57.1242 66.6226C59.1148 66.5558 61.1047 66.5103 63.0953 66.4867C63.1188 64.4969 63.1644 62.507 63.2312 60.5163C65.297 60.4435 67.3636 60.4435 69.43 60.5163C69.4968 62.5062 69.5424 64.4961 69.5659 66.4867C71.5565 66.5103 73.5464 66.5558 75.5371 66.6226C75.6092 68.6892 75.6092 70.755 75.5371 72.8215Z" fill="#115099"/>
</svg>
