<svg width="48" height="76" viewBox="0 0 48 76" fill="none" xmlns="http://www.w3.org/2000/svg">
<path d="M23.9158 8.14765C23.9158 12.5584 20.3397 16.1346 15.9283 16.1346C11.5171 16.1346 7.94141 12.5584 7.94141 8.14765C7.94141 3.73642 11.5169 0.160156 15.9283 0.160156C20.3395 0.160156 23.9158 3.73627 23.9158 8.14765Z" fill="#115099"/>
<path d="M27.0772 19.5459H20.3382L15.8457 26.202L11.3532 19.5459H4.61414C2.28455 19.5459 0.371094 21.4594 0.371094 23.7889V43.2577C0.371094 45.5873 2.28455 47.5008 4.61414 47.5008H6.52759V70.7968C6.52759 73.1264 8.44104 75.0398 10.7706 75.0398H11.6029C13.9325 75.0398 15.8459 73.1264 15.8459 70.7968C15.8459 73.1264 17.7594 75.0398 20.089 75.0398H20.9212C22.5851 75.0398 24.083 74.0416 24.7487 72.6273C23.6669 72.2112 22.5857 71.6291 21.587 70.8798C19.4239 69.2989 17.51 67.136 15.9297 64.4733L14.9314 62.8094L24.4162 56.2369C24.3332 56.2369 24.3332 56.154 24.2497 56.154C22.6687 55.4883 21.3374 54.4901 20.1727 53.3253C19.008 52.1605 18.0097 50.6626 17.3441 48.9988C16.5954 47.2513 16.2623 45.2549 16.3459 42.9253V42.8423C16.4288 40.9289 16.845 39.265 17.5936 37.6841C18.3423 36.1868 19.2575 34.8554 20.3392 33.6906C21.421 32.6088 22.7517 31.6106 24.2496 30.862C25.1648 30.3629 26.1631 30.0297 27.1619 29.6972L27.1613 25.9527H31.3213V23.7062C31.3213 21.4597 29.4073 19.5462 27.0778 19.5462L27.0772 19.5459Z" fill="#115099"/>
<path d="M29.2397 71.3788C26.9101 71.2959 24.7472 70.5466 22.7501 69.2158C20.8367 67.8015 19.0892 65.8881 17.7578 63.4749L25.0796 58.4826C25.8282 59.5643 26.5769 60.2301 27.1596 60.5626C27.8252 60.8951 28.4909 61.1452 29.2396 61.2282V55.6538C27.8252 55.3213 26.494 54.8216 25.1626 54.2395C23.8313 53.6568 22.6665 52.8252 21.6682 51.827C20.67 50.8288 19.8378 49.5805 19.2557 48.1661C18.673 46.7517 18.3405 45.0043 18.4235 42.9243C18.5065 41.3434 18.8396 39.8461 19.4217 38.5978C20.0044 37.35 20.836 36.1853 21.8342 35.1864C22.8324 34.1882 23.9142 33.4389 25.1619 32.7739C26.4097 32.1082 27.741 31.6091 29.2388 31.3596V27.9482H36.6436V31.2759C38.6406 31.5255 40.3875 32.1912 41.9684 33.1894C43.5494 34.1876 45.0467 35.8521 46.5446 38.098L39.6394 42.5917C39.3069 42.0926 38.8908 41.5935 38.3917 41.2604C37.8926 40.9279 37.2269 40.6777 36.6442 40.5117V46.9183C38.1415 47.3344 39.6394 47.7505 40.9707 48.4156C42.3021 48.9983 43.4669 49.8299 44.548 50.8281C45.5463 51.8263 46.3784 53.0746 46.8776 54.5719C47.4603 56.0692 47.6263 57.8996 47.5433 60.0633C47.4603 61.6442 47.0442 63.0585 46.4615 64.3063C45.7959 65.5541 45.0472 66.6359 44.049 67.5511C43.0508 68.4663 41.969 69.2986 40.6377 69.9636C39.3899 70.6293 38.0586 71.1284 36.7273 71.4609V75.0394H29.3225V71.3785L29.2397 71.3788ZM27.4922 43.0909C27.4922 43.9231 27.5752 44.5882 27.9913 45.1709C28.3239 45.7535 28.9066 46.1691 29.6552 46.4186V39.929C28.9895 40.3451 28.4074 40.7613 28.0742 41.3434C27.6587 41.926 27.4921 42.5081 27.4921 43.0908L27.4922 43.0909ZM38.4749 58.8157C38.4749 57.9834 38.3919 57.3184 37.9758 56.7357C37.6432 56.153 37.0606 55.7374 36.3119 55.4879V61.9775C36.9776 61.5614 37.5597 61.1453 37.8929 60.5632C38.3084 60.0635 38.475 59.4814 38.475 58.8157L38.4749 58.8157Z" fill="#115099"/>
</svg>
