<svg width="50" height="74" viewBox="0 0 50 74" fill="none" xmlns="http://www.w3.org/2000/svg">
<path d="M45.267 13.2766C35.9261 10.3651 25.6961 0.0634766 25.6961 0.0634766C18.7517 12.2064 0.640625 20.5254 0.640625 20.5254C17.4126 68.5785 42.6053 73.0873 42.6053 73.0873C56.2863 42.8711 45.2664 13.2771 45.2664 13.2771L45.267 13.2766ZM42.3854 71.9935C42.3854 71.9935 20.9759 68.0827 3.53638 21.2461C3.53638 21.2461 20.0694 12.7676 26.5114 1.57478C26.5114 1.57478 36.2236 10.6146 44.7133 13.6249C44.7133 13.6238 55.9248 41.3534 42.3864 71.9939L42.3854 71.9935Z" fill="#115099"/>
<path d="M32.163 18.4525C41.8276 23.677 45.2981 26.1383 47.3637 26.4349C46.6516 21.0887 44.3914 13.8284 44.3914 13.8284C36.5549 11.0146 26.9717 2.49414 26.9717 2.49414C21.1908 12.5384 5.33594 21.6167 5.33594 21.6167C7.01427 26.3076 8.75285 30.5543 10.5201 34.4105C12.2234 33.4757 23.1078 26.7661 32.1644 18.4517L32.163 18.4525Z" fill="#115099"/>
<path d="M48.069 49.4042C48.0713 49.4257 48.0707 49.4511 48.0729 49.4732C49.0718 41.1206 48.4602 35.5104 48.4602 35.5104C47.184 35.4176 40.8086 32.0796 34.6384 28.8125C27.5498 35.4315 16.2159 43.1816 15.2344 43.794C17.9647 48.5745 20.6463 52.5345 23.1996 55.8254C23.8499 55.3541 31.3627 49.8787 37.6084 43.7271C41.8324 46.565 46.9803 49.2058 48.0691 49.4037L48.069 49.4042Z" fill="#115099"/>
<path d="M27.7228 61.1415C36.1372 70.0941 42.2461 71.5128 42.2461 71.5128C44.5698 66.0683 46.0675 60.783 47.0277 56.0108C46.5382 55.7721 42.65 53.8523 39.1938 51.3828C35.3227 55.366 29.0794 60.1221 27.7227 61.1419L27.7228 61.1415Z" fill="#115099"/>
</svg>
