<svg width="97" height="83" viewBox="0 0 97 83" fill="none" xmlns="http://www.w3.org/2000/svg">
<path d="M26.3637 32.5498V41.0787C26.3645 44.5086 25.8718 47.921 24.9009 51.2108C22.0206 60.9633 17.9744 70.333 12.8499 79.1156H2.25367C1.26533 79.1156 0.464844 79.9168 0.464844 80.9045C0.464844 81.8928 1.26531 82.6933 2.25367 82.6933H94.7415C95.7299 82.6933 96.5304 81.8928 96.5304 80.9045C96.5304 79.9169 95.7299 79.1156 94.7415 79.1156H85.85V44.6776H55.007C55.2248 46.7186 55.6276 48.7349 56.2095 50.7034C57.6657 55.6371 59.4262 60.4766 61.4802 65.1931V62.2595H68.2357V68.7751H63.1089C64.7823 72.3066 66.6209 75.7577 68.618 79.1162H66.5419C61.4189 70.3328 57.3734 60.9633 54.4946 51.2113C53.5223 47.9217 53.0289 44.5094 53.0281 41.0792V32.5504L26.3637 32.5498ZM61.4811 50.0718H68.2366V56.5919L61.4811 56.5926V50.0718ZM73.7535 50.0718H80.509V56.5919L73.7528 56.5926L73.7535 50.0718ZM73.7535 62.2595H80.509V68.7751H73.7528L73.7535 62.2595Z" fill="#115099"/>
<path d="M61.7344 7.8281C59.259 5.90689 55.9513 5.44053 53.0418 6.60217C50.1315 7.76376 48.054 10.3802 47.5824 13.4774C45.6825 11.6703 42.966 11.0081 40.4476 11.7376C37.9292 12.4671 35.9869 14.4788 35.3465 17.0214C34.7068 19.5639 35.4641 22.2548 37.3363 24.0903C35.6776 23.3936 33.7799 23.5735 32.2812 24.5699C30.7834 25.5663 29.8828 27.2462 29.8828 29.0452H49.8847C49.9154 27.138 48.9329 25.3572 47.3026 24.3666C48.4482 23.3732 49.2603 22.0515 49.6273 20.58C50.767 21.9009 52.2722 22.8549 53.9535 23.322C55.6341 23.7891 57.4157 23.7474 59.0736 23.2036C59.9267 25.8228 61.9531 27.8937 64.5525 28.8048C67.1521 29.7156 70.028 29.3618 72.33 27.8486C74.6313 26.3346 76.0955 23.8338 76.2885 21.0858C77.4077 22.2635 78.91 23.0033 80.5256 23.1715C82.1419 23.3404 83.7641 22.9266 85.1018 22.0048C86.4395 21.0829 87.4046 19.7145 87.8226 18.1449C88.2415 16.5747 88.0858 14.9072 87.384 13.4422C86.6822 11.9773 85.4804 10.8106 83.9958 10.1526C82.5103 9.49472 80.8393 9.38872 79.282 9.85291C79.5474 6.7688 78.1789 3.77077 75.6758 1.95043C73.172 0.130166 69.8985 -0.24775 67.0468 0.954773C64.1944 2.15732 62.1789 4.76407 61.7344 7.82797L61.7344 7.8281Z" fill="#115099"/>
</svg>
