<svg width="142" height="40" viewBox="0 0 142 40" fill="none" xmlns="http://www.w3.org/2000/svg">
<path d="M30.11 35.5596H0.5V36.2928H30.11V35.5596Z" fill="#BDDBFF"/>
<path d="M141.501 35.5596H111.891V36.2928H141.501V35.5596Z" fill="#BDDBFF"/>
<path d="M33.4075 3.90518L32.2372 0.450684H30.6016V9.91178H32.1808V4.18718L33.3934 7.76858H33.4216L34.6201 4.18718V9.91178H36.1993V0.450684H34.5637L33.4075 3.90518Z" fill="#BDDBFF"/>
<path d="M40.3457 0.30957C38.8511 0.30957 37.8359 1.80417 37.8359 4.93437V5.42787C37.8359 8.54397 38.8511 10.0527 40.3457 10.0527C41.8403 10.0527 42.8555 8.55807 42.8555 5.42787V4.93437C42.8555 1.80417 41.8403 0.30957 40.3457 0.30957ZM41.1776 5.41377C41.1776 7.85307 40.8392 8.51577 40.3457 8.51577C39.8522 8.51577 39.5138 7.83897 39.5138 5.41377V4.92027C39.5138 2.48097 39.8522 1.80417 40.3457 1.80417C40.8392 1.80417 41.1776 2.48097 41.1776 4.92027V5.41377Z" fill="#BDDBFF"/>
<path d="M49.1014 3.58088V3.45398C49.1014 1.33898 47.8747 0.450684 46.1827 0.450684H44.4766V9.91178H46.1263V6.61238H46.4083C46.4083 6.61238 46.4224 6.61238 46.4365 6.61238L47.5081 9.91178H49.2706L48.0016 6.07658C48.6079 5.59718 49.1014 4.80758 49.1014 3.58088ZM47.4517 3.59498C47.4517 4.70888 46.93 5.11778 46.2109 5.11778H46.1263V1.98758H46.1686C46.8877 1.98758 47.4517 2.29778 47.4517 3.48218V3.59498Z" fill="#BDDBFF"/>
<path d="M52.9213 6.01988H53.7391V8.44508C53.6545 8.45918 53.6404 8.45918 53.584 8.45918C52.9072 8.45918 52.174 7.89518 52.174 5.41358V4.94828C52.174 2.90378 52.7662 1.95908 53.7109 1.95908C54.148 1.95908 54.5146 2.12828 54.9094 2.36798V0.647783C54.571 0.478583 54.148 0.379883 53.6545 0.379883C51.7933 0.379883 50.4961 1.95908 50.4961 5.01878V5.34308C50.4961 8.64248 51.8638 9.98198 53.5135 9.98198C54.148 9.98198 54.6415 9.82688 55.2337 9.57308V4.53938H52.9213V6.01988Z" fill="#BDDBFF"/>
<path d="M58.2814 0.422363L56.4766 9.91166H58.0699L58.366 8.03636H59.8606L60.1708 9.91166H61.8346L60.0439 0.422363H58.2814ZM58.6198 6.54176L59.1274 3.42566L59.6209 6.54176H58.6198Z" fill="#BDDBFF"/>
<path d="M68.3756 1.74788C68.3756 1.28258 68.4884 0.831384 68.6717 0.450684H66.3452V5.23058L64.6814 0.450684H63.1445V9.91178H64.7519V4.89218L66.5003 9.91178H67.9103C67.6847 9.44648 67.5578 8.89658 67.5578 8.29028V8.19158C67.5578 6.72518 68.2487 5.62538 69.4049 4.62428C68.7422 3.53858 68.3897 2.70668 68.3897 1.87478V1.74788H68.3756Z" fill="#BDDBFF"/>
<path d="M76.8357 3.90518L75.6795 0.450684H73.071C73.2402 0.817284 73.3389 1.25438 73.3389 1.73378V1.86068C73.3389 3.22838 72.7044 4.21538 71.6328 5.11778L72.7185 7.17638C72.8031 6.79568 72.8877 6.28808 72.9723 5.56898L74.5938 5.86508C74.4387 7.21868 74.1567 8.20568 73.8183 8.98118L74.3823 9.93998H75.6372V4.18718L76.8357 7.76858H76.8639L78.0624 4.18718V9.91178H79.6416V0.450684H78.006L76.8357 3.90518Z" fill="#BDDBFF"/>
<path d="M83.7754 0.30957C82.2808 0.30957 81.2656 1.80417 81.2656 4.93437V5.42787C81.2656 8.54397 82.2808 10.0527 83.7754 10.0527C85.27 10.0527 86.2852 8.55807 86.2852 5.42787V4.93437C86.2852 1.80417 85.27 0.30957 83.7754 0.30957ZM84.6073 5.41377C84.6073 7.85307 84.2689 8.51577 83.7754 8.51577C83.2819 8.51577 82.9435 7.83897 82.9435 5.39967V4.90617C82.9435 2.46687 83.2819 1.79007 83.7754 1.79007C84.2689 1.79007 84.6073 2.46687 84.6073 4.90617V5.41377Z" fill="#BDDBFF"/>
<path d="M92.531 3.58088V3.45398C92.531 1.33898 91.3043 0.450684 89.6123 0.450684H87.9062V9.91178H89.5559V6.61238H89.8379C89.8379 6.61238 89.852 6.61238 89.8661 6.61238L90.9378 9.91178H92.7003L91.4313 6.07658C92.0517 5.59718 92.531 4.80758 92.531 3.58088ZM90.8813 3.59498C90.8813 4.70888 90.3596 5.11778 89.6405 5.11778H89.5559V1.98758H89.5983C90.3174 1.98758 90.8813 2.29778 90.8813 3.48218V3.59498Z" fill="#BDDBFF"/>
<path d="M96.3627 6.01988H97.1805V8.44508C97.0959 8.45918 97.0818 8.45918 97.0254 8.45918C96.3486 8.45918 95.6154 7.89518 95.6154 5.41358V4.94828C95.6154 2.90378 96.2076 1.95908 97.1523 1.95908C97.5894 1.95908 97.956 2.12828 98.3508 2.36798V0.647783C98.0124 0.478583 97.5894 0.379883 97.0959 0.379883C95.2347 0.379883 93.9375 1.95908 93.9375 5.01878V5.34308C93.9375 8.64248 95.3052 9.98198 96.9549 9.98198C97.5894 9.98198 98.0829 9.82688 98.6751 9.57308V4.53938H96.3627V6.01988Z" fill="#BDDBFF"/>
<path d="M101.709 0.422363L99.918 9.91166H101.511L101.807 8.03636H103.302L103.612 9.91166H105.262L103.471 0.422363H101.709ZM102.047 6.54176L102.555 3.42566L103.048 6.54176H102.047Z" fill="#BDDBFF"/>
<path d="M109.789 0.450684V5.23058L108.125 0.450684H106.574V9.91178H108.196V4.89218L109.93 9.91178H111.396V0.450684H109.789Z" fill="#BDDBFF"/>
<path d="M71.5177 1.90296V1.76196C71.5177 1.16976 71.2357 0.789062 70.8409 0.789062C70.432 0.789062 70.1641 1.16976 70.1641 1.69146V1.86066C70.1641 2.32596 70.3756 2.87586 70.7704 3.66546C71.3203 3.15786 71.5177 2.53746 71.5177 1.90296Z" fill="#BDDBFF"/>
<path d="M69.5742 8.02215V8.16315C69.5742 9.09375 70.0254 9.71415 70.7163 9.71415C71.1816 9.71415 71.5059 9.50265 71.802 9.12195L70.2792 6.11865C69.828 6.68265 69.5742 7.41585 69.5742 8.02215Z" fill="#BDDBFF"/>
<path d="M1.44531 15.4673H4.85751C6.43671 15.4673 7.57881 15.6929 8.28381 16.1582C8.98881 16.6235 9.34131 17.3426 9.34131 18.3437C9.34131 19.0205 9.17211 19.5704 8.81961 20.0216C8.46711 20.4728 7.97361 20.7407 7.32501 20.8676V20.9522C8.12871 21.1073 8.72091 21.4034 9.10161 21.8546C9.48231 22.3058 9.66561 22.9121 9.66561 23.6735C9.66561 24.7028 9.29901 25.5065 8.57991 26.0987C7.86081 26.6768 6.85971 26.9729 5.57661 26.9729H1.44531V15.4673ZM3.32061 20.219H5.12541C5.91501 20.219 6.47901 20.0921 6.84561 19.8524C7.21221 19.5986 7.38141 19.1756 7.38141 18.5834C7.38141 18.0476 7.18401 17.6528 6.78921 17.4131C6.39441 17.1734 5.77401 17.0465 4.92801 17.0465H3.32061V20.219ZM3.32061 21.7418V25.3796H5.30871C6.09831 25.3796 6.69051 25.2245 7.08531 24.9284C7.48011 24.6323 7.69161 24.1529 7.69161 23.5043C7.69161 22.9121 7.49421 22.4609 7.08531 22.1789C6.67641 21.8969 6.05601 21.7418 5.22411 21.7418H3.32061Z" fill="#BDDBFF"/>
<path d="M17.7004 18.9077V24.1106C17.7004 24.7028 17.5735 25.2245 17.3056 25.6757C17.0377 26.1269 16.657 26.4653 16.1494 26.705C15.6418 26.9447 15.0496 27.0575 14.3728 27.0575C13.3435 27.0575 12.5398 26.7896 11.9617 26.2679C11.3836 25.7321 11.1016 25.013 11.1016 24.0965V18.9218H12.7936V23.8427C12.7936 24.4631 12.9205 24.9143 13.1602 25.2104C13.414 25.5065 13.8229 25.6475 14.401 25.6475C14.965 25.6475 15.3598 25.5065 15.6136 25.2104C15.8674 24.9143 15.9943 24.4631 15.9943 23.8427V18.9359H17.7004V18.9077Z" fill="#BDDBFF"/>
<path d="M24.4171 24.7165C24.4171 25.4356 24.1633 26.0137 23.6275 26.4367C23.1058 26.8597 22.3726 27.0571 21.442 27.0571C20.5819 27.0571 19.8205 26.902 19.1719 26.5777V24.9985C19.7077 25.2382 20.173 25.4074 20.5537 25.5061C20.9344 25.6048 21.2728 25.6612 21.583 25.6612C21.9496 25.6612 22.2457 25.5907 22.4431 25.4497C22.6405 25.3087 22.7392 25.0972 22.7392 24.8152C22.7392 24.6601 22.6969 24.5191 22.6123 24.3922C22.5277 24.2653 22.4008 24.1525 22.2316 24.0397C22.0624 23.9269 21.7099 23.7436 21.1882 23.4898C20.6947 23.2642 20.3281 23.0386 20.0884 22.8271C19.8487 22.6156 19.6513 22.3618 19.4962 22.0798C19.3552 21.7978 19.2706 21.4735 19.2706 21.0928C19.2706 20.3878 19.5103 19.8238 19.9897 19.4149C20.4691 19.006 21.1318 18.8086 21.9919 18.8086C22.4149 18.8086 22.8097 18.865 23.1904 18.9637C23.5711 19.0624 23.9659 19.2034 24.3748 19.3867L23.8249 20.7121C23.4019 20.5429 23.0353 20.416 22.7674 20.3455C22.4854 20.275 22.2175 20.2468 21.9355 20.2468C21.6112 20.2468 21.3715 20.3173 21.1882 20.4724C21.019 20.6275 20.9344 20.8249 20.9344 21.0646C20.9344 21.2197 20.9626 21.3466 21.0331 21.4594C21.1036 21.5722 21.2164 21.685 21.3715 21.7837C21.5266 21.8824 21.8791 22.0798 22.4572 22.3477C23.2045 22.7002 23.7262 23.0668 24.0082 23.4334C24.2761 23.7577 24.4171 24.1948 24.4171 24.7165Z" fill="#BDDBFF"/>
<path d="M25.8672 26.9447V18.9077H27.5733V26.9447H25.8672Z" fill="#BDDBFF"/>
<path d="M36.7229 26.9447H34.5515L31.0547 20.8676H30.9983C31.0688 21.9392 31.097 22.7006 31.097 23.1659V26.9447H29.5742V18.9077H31.7174L35.2142 24.9284H35.2565C35.2001 23.885 35.1719 23.1518 35.1719 22.7147V18.9077H36.7088V26.9447H36.7229Z" fill="#BDDBFF"/>
<path d="M43.3787 26.9447H38.7539V18.9077H43.3787V20.3036H40.46V22.0661H43.1813V23.462H40.46V25.5488H43.3787V26.9447Z" fill="#BDDBFF"/>
<path d="M49.8077 24.7165C49.8077 25.4356 49.5539 26.0137 49.0181 26.4367C48.4964 26.8597 47.7632 27.0571 46.8326 27.0571C45.9725 27.0571 45.2111 26.902 44.5625 26.5777V24.9985C45.0983 25.2382 45.5636 25.4074 45.9443 25.5061C46.325 25.6048 46.6634 25.6612 46.9736 25.6612C47.3402 25.6612 47.6363 25.5907 47.8337 25.4497C48.0311 25.3087 48.1298 25.0972 48.1298 24.8152C48.1298 24.6601 48.0875 24.5191 48.0029 24.3922C47.9183 24.2653 47.7914 24.1525 47.6222 24.0397C47.453 23.9269 47.1005 23.7436 46.5788 23.4898C46.0853 23.2642 45.7187 23.0386 45.479 22.8271C45.2393 22.6156 45.0419 22.3618 44.8868 22.0798C44.7458 21.7978 44.6612 21.4735 44.6612 21.0928C44.6612 20.3878 44.9009 19.8238 45.3803 19.4149C45.8597 19.006 46.5224 18.8086 47.3825 18.8086C47.8055 18.8086 48.2003 18.865 48.581 18.9637C48.9617 19.0624 49.3565 19.2034 49.7654 19.3867L49.2155 20.7121C48.7925 20.5429 48.4259 20.416 48.158 20.3455C47.876 20.275 47.6081 20.2468 47.3261 20.2468C47.0018 20.2468 46.7621 20.3173 46.5788 20.4724C46.4096 20.6275 46.325 20.8249 46.325 21.0646C46.325 21.2197 46.3532 21.3466 46.4237 21.4594C46.4942 21.5722 46.607 21.685 46.7621 21.7837C46.9172 21.8824 47.2697 22.0798 47.8478 22.3477C48.5951 22.7002 49.1168 23.0668 49.3988 23.4334C49.6667 23.7577 49.8077 24.1948 49.8077 24.7165Z" fill="#BDDBFF"/>
<path d="M55.9991 24.7165C55.9991 25.4356 55.7453 26.0137 55.2095 26.4367C54.6878 26.8597 53.9546 27.0571 53.024 27.0571C52.1639 27.0571 51.4025 26.902 50.7539 26.5777V24.9985C51.2897 25.2382 51.755 25.4074 52.1357 25.5061C52.5164 25.6048 52.8548 25.6612 53.165 25.6612C53.5316 25.6612 53.8277 25.5907 54.0251 25.4497C54.2225 25.3087 54.3212 25.0972 54.3212 24.8152C54.3212 24.6601 54.2789 24.5191 54.1943 24.3922C54.1097 24.2653 53.9828 24.1525 53.8136 24.0397C53.6444 23.9269 53.2919 23.7436 52.7702 23.4898C52.2767 23.2642 51.9101 23.0386 51.6704 22.8271C51.4307 22.6156 51.2333 22.3618 51.0782 22.0798C50.9372 21.7978 50.8526 21.4735 50.8526 21.0928C50.8526 20.3878 51.0923 19.8238 51.5717 19.4149C52.0511 19.006 52.7138 18.8086 53.5739 18.8086C53.9969 18.8086 54.3917 18.865 54.7724 18.9637C55.1531 19.0624 55.5479 19.2034 55.9568 19.3867L55.4069 20.7121C54.9839 20.5429 54.6173 20.416 54.3494 20.3455C54.0674 20.275 53.7995 20.2468 53.5175 20.2468C53.1932 20.2468 52.9535 20.3173 52.7702 20.4724C52.601 20.6275 52.5164 20.8249 52.5164 21.0646C52.5164 21.2197 52.5446 21.3466 52.6151 21.4594C52.6856 21.5722 52.7984 21.685 52.9535 21.7837C53.1086 21.8824 53.4611 22.0798 54.0392 22.3477C54.7865 22.7002 55.3082 23.0668 55.5902 23.4334C55.8581 23.7577 55.9991 24.1948 55.9991 24.7165Z" fill="#BDDBFF"/>
<path d="M65.7827 26.9447H63.9074V17.0747H60.5234V15.4673H69.1526V17.0747H65.7686L65.7827 26.9447Z" fill="#BDDBFF"/>
<path d="M71.3936 23.8705V26.9584H69.6875V18.9214H72.0281C73.1138 18.9214 73.9316 19.1188 74.4533 19.5136C74.975 19.9084 75.2429 20.5147 75.2429 21.3184C75.2429 21.7978 75.116 22.2067 74.8481 22.5874C74.5943 22.954 74.2136 23.2501 73.7483 23.4475C74.9609 25.2523 75.7505 26.4226 76.1171 26.9443H74.2277L72.3101 23.8564L71.3936 23.8705ZM71.3936 22.4746H71.9435C72.4793 22.4746 72.8741 22.39 73.142 22.2067C73.3958 22.0234 73.5227 21.7414 73.5227 21.3607C73.5227 20.98 73.3958 20.7121 73.1279 20.5429C72.86 20.3878 72.4652 20.3032 71.9153 20.3032H71.3936V22.4746Z" fill="#BDDBFF"/>
<path d="M77.1172 26.9447V18.9077H78.8233V26.9447H77.1172Z" fill="#BDDBFF"/>
<path d="M85.7657 26.9446L85.1876 25.027H82.2548L81.6768 26.9446H79.8438L82.6778 18.8794H84.7646L87.6128 26.9446H85.7657ZM84.7787 23.6029C84.2429 21.8686 83.9328 20.8957 83.8622 20.656C83.7917 20.4304 83.7494 20.2471 83.7213 20.1202C83.5944 20.5855 83.2559 21.7558 82.6778 23.6029H84.7787Z" fill="#BDDBFF"/>
<path d="M88.6133 26.9447V18.9077H90.3194V25.5347H93.5765V26.9447H88.6133Z" fill="#BDDBFF"/>
<path d="M103.628 20.7264H107.858V26.4933C107.167 26.7189 106.504 26.874 105.87 26.9727C105.235 27.0714 104.545 27.1137 103.811 27.1137C102.077 27.1137 100.738 26.6061 99.7928 25.5768C98.8481 24.5475 98.3828 23.0952 98.3828 21.2199C98.3828 19.3728 98.9186 17.9205 99.9761 16.8771C101.034 15.8337 102.5 15.312 104.361 15.312C105.56 15.312 106.702 15.5376 107.773 16.0029L107.111 17.568C106.18 17.145 105.25 16.9194 104.319 16.9194C103.092 16.9194 102.119 17.3001 101.414 18.0756C100.695 18.8511 100.343 19.8945 100.343 21.234C100.343 22.644 100.667 23.7015 101.302 24.4347C101.936 25.1679 102.867 25.5345 104.065 25.5345C104.671 25.5345 105.32 25.464 106.011 25.3089V22.3479H103.628V20.7264Z" fill="#BDDBFF"/>
<path d="M111.808 23.8705V26.9584H110.102V18.9214H112.442C113.528 18.9214 114.346 19.1188 114.867 19.5136C115.389 19.9084 115.657 20.5147 115.657 21.3184C115.657 21.7978 115.53 22.2067 115.262 22.5874C115.008 22.954 114.628 23.2501 114.162 23.4475C115.375 25.2523 116.165 26.4226 116.531 26.9443H114.642L112.724 23.8564L111.808 23.8705ZM111.808 22.4746H112.358C112.893 22.4746 113.288 22.39 113.556 22.2067C113.81 22.0234 113.937 21.7414 113.937 21.3607C113.937 20.98 113.81 20.7121 113.542 20.5429C113.274 20.3878 112.879 20.3032 112.329 20.3032H111.808V22.4746Z" fill="#BDDBFF"/>
<path d="M124.834 22.9258C124.834 24.2512 124.509 25.2805 123.847 25.9996C123.184 26.7187 122.239 27.0712 121.013 27.0712C119.786 27.0712 118.841 26.7187 118.178 25.9996C117.516 25.2805 117.191 24.2653 117.191 22.9258C117.191 21.5863 117.516 20.5711 118.178 19.8661C118.841 19.1611 119.786 18.8086 121.027 18.8086C122.267 18.8086 123.212 19.1611 123.861 19.8802C124.495 20.557 124.834 21.5863 124.834 22.9258ZM118.968 22.9258C118.968 23.8282 119.137 24.505 119.476 24.9562C119.814 25.4074 120.322 25.633 120.998 25.633C122.352 25.633 123.043 24.7306 123.043 22.9258C123.043 21.121 122.366 20.2045 121.013 20.2045C120.336 20.2045 119.828 20.4301 119.476 20.8813C119.137 21.3466 118.968 22.0234 118.968 22.9258Z" fill="#BDDBFF"/>
<path d="M133.04 18.9077V24.1106C133.04 24.7028 132.913 25.2245 132.645 25.6757C132.378 26.1269 131.997 26.4653 131.489 26.705C130.982 26.9447 130.389 27.0575 129.713 27.0575C128.683 27.0575 127.88 26.7896 127.302 26.2679C126.723 25.7321 126.441 25.013 126.441 24.0965V18.9218H128.133V23.8427C128.133 24.4631 128.26 24.9143 128.5 25.2104C128.754 25.5065 129.163 25.6475 129.741 25.6475C130.305 25.6475 130.7 25.5065 130.953 25.2104C131.207 24.9143 131.334 24.4631 131.334 23.8427V18.9359H133.04V18.9077Z" fill="#BDDBFF"/>
<path d="M140.555 21.4171C140.555 22.2772 140.287 22.9399 139.752 23.4052C139.216 23.8705 138.44 24.0961 137.439 24.0961H136.706V26.9584H135V18.9214H137.566C138.539 18.9214 139.286 19.1329 139.794 19.5559C140.302 19.9648 140.555 20.5852 140.555 21.4171ZM136.706 22.7002H137.27C137.792 22.7002 138.187 22.6015 138.44 22.39C138.694 22.1785 138.835 21.8824 138.835 21.4876C138.835 21.0928 138.722 20.7967 138.511 20.5993C138.299 20.416 137.947 20.3173 137.482 20.3173H136.706V22.7002Z" fill="#BDDBFF"/>
<path d="M35.4967 33.7547C35.116 33.7547 34.7776 33.8534 34.4815 34.0649C34.1854 34.2764 33.9457 34.5866 33.7765 34.9955C33.6073 35.4044 33.5086 35.8415 33.5086 36.3209C33.5086 36.7298 33.6214 37.0541 33.8188 37.2938C34.0303 37.5335 34.3264 37.6604 34.693 37.6604C34.9891 37.6604 35.3416 37.604 35.7364 37.4771V37.9565C35.5531 38.027 35.3698 38.0693 35.2006 38.0975C35.0314 38.1257 34.834 38.1398 34.5943 38.1398C34.0726 38.1398 33.6637 37.9847 33.3535 37.6604C33.0574 37.3361 32.9023 36.899 32.9023 36.335C32.9023 35.771 33.0151 35.2493 33.2407 34.7558C33.4663 34.2764 33.7765 33.8957 34.1572 33.6419C34.5379 33.3881 34.975 33.2612 35.4685 33.2612C35.8915 33.2612 36.2722 33.3458 36.5965 33.515L36.3709 33.9662C36.103 33.8252 35.8069 33.7547 35.4967 33.7547Z" fill="#BDDBFF"/>
<path d="M38.4172 34.4741C38.8261 34.4741 39.1504 34.601 39.3901 34.8407C39.6298 35.0804 39.7426 35.4188 39.7426 35.8418C39.7426 36.2507 39.658 36.6314 39.5029 36.998C39.3478 37.3646 39.1363 37.6466 38.8684 37.844C38.6005 38.0414 38.3044 38.1401 37.966 38.1401C37.543 38.1401 37.2187 38.0132 36.9931 37.7735C36.7534 37.5338 36.6406 37.1954 36.6406 36.7724C36.6406 36.3635 36.7252 35.9687 36.8803 35.6162C37.0354 35.2496 37.2469 34.9676 37.5148 34.7843C37.7968 34.5728 38.0929 34.4741 38.4172 34.4741ZM39.1927 35.7713C39.1927 35.5175 39.1222 35.3201 38.9953 35.165C38.8543 35.0099 38.671 34.9253 38.4454 34.9253C38.2057 34.9253 37.9942 35.0099 37.8109 35.165C37.6276 35.3201 37.4725 35.5457 37.3738 35.8277C37.2751 36.1097 37.2187 36.434 37.2187 36.7724C37.2187 37.0544 37.2892 37.28 37.4302 37.4351C37.5712 37.5902 37.7686 37.6748 38.0224 37.6748C38.248 37.6748 38.4454 37.5902 38.6287 37.4351C38.812 37.28 38.953 37.0544 39.0517 36.7583C39.1363 36.4763 39.1927 36.152 39.1927 35.7713Z" fill="#BDDBFF"/>
<path d="M42.4346 38.0835L42.914 35.8275C42.9563 35.6019 42.9845 35.4468 42.9845 35.3622C42.9845 35.2212 42.9422 35.1225 42.8717 35.0379C42.8012 34.9533 42.6743 34.911 42.5051 34.911C42.3077 34.911 42.1244 34.9815 41.9411 35.1084C41.7578 35.2353 41.6027 35.4186 41.4617 35.6583C41.3207 35.898 41.222 36.1941 41.1515 36.5325L40.8272 38.0694H40.2773L41.0387 34.5021H41.4899L41.4194 35.1648H41.4476C41.6591 34.8969 41.8565 34.7136 42.0539 34.6008C42.2513 34.488 42.4487 34.4316 42.6602 34.4316C42.9422 34.4316 43.1537 34.5021 43.3088 34.6572C43.4639 34.8123 43.5485 35.0238 43.5485 35.2917C43.5485 35.4609 43.5203 35.6583 43.478 35.8698L43.0127 38.0553H42.4346V38.0835Z" fill="#BDDBFF"/>
<path d="M45.1823 37.7031C45.2951 37.7031 45.4643 37.6749 45.6476 37.6185V38.0415C45.5771 38.0697 45.4784 38.0979 45.3797 38.1261C45.2669 38.1543 45.1823 38.1543 45.1259 38.1543C44.858 38.1543 44.6465 38.0838 44.5055 37.9569C44.3645 37.83 44.294 37.6326 44.294 37.3788C44.294 37.2378 44.3081 37.0686 44.3504 36.8853L44.7593 34.9254H44.1953L44.2376 34.6857L44.8439 34.4319L45.2528 33.6846H45.5771L45.3938 34.5024H46.2821L46.1975 34.9113H45.3092L44.8862 36.8712C44.8439 37.0545 44.8298 37.2096 44.8298 37.2942C44.8298 37.4211 44.858 37.5057 44.9285 37.5762C44.9849 37.6749 45.0695 37.7031 45.1823 37.7031Z" fill="#BDDBFF"/>
<path d="M46.8077 38.0837H46.2578L47.0192 34.5164H47.5691L46.8077 38.0837ZM47.1743 33.614C47.1743 33.4871 47.2025 33.3884 47.273 33.3179C47.3435 33.2474 47.4281 33.2051 47.5409 33.2051C47.7383 33.2051 47.8229 33.3038 47.8229 33.5012C47.8229 33.614 47.7806 33.7268 47.7101 33.7973C47.6396 33.8819 47.555 33.9242 47.4563 33.9242C47.3717 33.9242 47.3012 33.896 47.2448 33.8396C47.2025 33.7832 47.1743 33.7127 47.1743 33.614Z" fill="#BDDBFF"/>
<path d="M50.1182 38.0835L50.5976 35.8275C50.6399 35.6019 50.6681 35.4468 50.6681 35.3622C50.6681 35.2212 50.6258 35.1225 50.5553 35.0379C50.4848 34.9533 50.3579 34.911 50.1887 34.911C49.9913 34.911 49.808 34.9815 49.6247 35.1084C49.4414 35.2353 49.2863 35.4186 49.1453 35.6583C49.0043 35.898 48.9056 36.1941 48.8351 36.5325L48.5108 38.0694H47.9609L48.7223 34.5021H49.1735L49.103 35.1648H49.1312C49.3427 34.8969 49.5401 34.7136 49.7375 34.6008C49.9349 34.488 50.1323 34.4316 50.3438 34.4316C50.6258 34.4316 50.8373 34.5021 50.9924 34.6572C51.1475 34.8123 51.2321 35.0238 51.2321 35.2917C51.2321 35.4609 51.2039 35.6583 51.1616 35.8698L50.6963 38.0553H50.1182V38.0835Z" fill="#BDDBFF"/>
<path d="M55.1661 34.5163L55.0815 34.8688L54.3906 34.9534C54.4752 35.0944 54.5175 35.2636 54.5175 35.461C54.5175 35.8699 54.3906 36.2083 54.1368 36.448C53.883 36.6877 53.5446 36.8146 53.1216 36.8146C53.0088 36.8146 52.9101 36.8005 52.8537 36.7864C52.5576 36.8992 52.4025 37.0402 52.4025 37.2094C52.4025 37.294 52.4448 37.3504 52.5153 37.3927C52.5858 37.4209 52.6845 37.4491 52.8255 37.4632L53.2062 37.5055C53.601 37.5478 53.883 37.6465 54.0663 37.7875C54.2496 37.9285 54.3342 38.14 54.3342 38.422C54.3342 38.8168 54.1791 39.127 53.8548 39.3526C53.5446 39.5782 53.0934 39.6769 52.5153 39.6769C52.0923 39.6769 51.768 39.5923 51.5283 39.4372C51.2886 39.2821 51.1758 39.0565 51.1758 38.7604C51.1758 38.5348 51.2604 38.3374 51.4155 38.1682C51.5706 37.999 51.8244 37.858 52.1769 37.7452C52.0077 37.6606 51.9231 37.5196 51.9231 37.3504C51.9231 37.1953 51.9795 37.0684 52.0923 36.9697C52.2051 36.8569 52.3602 36.7582 52.5576 36.6736C52.4166 36.6031 52.3038 36.5044 52.2192 36.3634C52.1346 36.2224 52.0923 36.0673 52.0923 35.884C52.0923 35.461 52.2192 35.1226 52.4871 34.8547C52.7409 34.5868 53.0793 34.4458 53.4741 34.4458C53.6433 34.4458 53.8125 34.474 53.9817 34.5163H55.1661ZM51.7116 38.7181C51.7116 38.8873 51.7821 39.0142 51.9231 39.1129C52.0641 39.2116 52.2756 39.2539 52.5576 39.2539C52.9524 39.2539 53.2626 39.1834 53.4882 39.0424C53.7138 38.9014 53.8266 38.704 53.8266 38.4643C53.8266 38.3233 53.7702 38.2246 53.6574 38.14C53.5446 38.0554 53.3472 38.0131 53.0652 37.9708L52.5435 37.9144C52.2897 37.9708 52.0782 38.0695 51.9513 38.1964C51.7821 38.3656 51.7116 38.5207 51.7116 38.7181ZM52.614 35.8699C52.614 36.0532 52.6563 36.1942 52.755 36.2929C52.8537 36.3916 52.9947 36.4339 53.1639 36.4339C53.3331 36.4339 53.4882 36.3916 53.6151 36.2929C53.742 36.2083 53.8407 36.0814 53.9112 35.9122C53.9817 35.7571 54.0099 35.5738 54.0099 35.3905C54.0099 35.2072 53.9676 35.0803 53.8689 34.9816C53.7702 34.8829 53.6433 34.8406 53.46 34.8406C53.2908 34.8406 53.1357 34.8829 53.0229 34.9675C52.896 35.0521 52.7973 35.179 52.7268 35.3341C52.6422 35.5174 52.614 35.6866 52.614 35.8699Z" fill="#BDDBFF"/>
<path d="M56.5331 38.1542C56.1383 38.1542 55.8281 38.0414 55.5884 37.8017C55.3628 37.562 55.25 37.2377 55.25 36.8147C55.25 36.4058 55.3346 36.011 55.4897 35.6444C55.6448 35.2637 55.8704 34.9817 56.1383 34.7702C56.4062 34.5587 56.7023 34.46 57.0125 34.46C57.3368 34.46 57.5906 34.5305 57.7598 34.6715C57.929 34.8125 58.0136 35.0099 58.0136 35.2778C58.0136 35.6726 57.8303 35.9687 57.4778 36.1943C57.1112 36.4199 56.6036 36.5327 55.9268 36.5327H55.814L55.7999 36.7865C55.7999 37.0685 55.8704 37.2941 55.9973 37.4492C56.1242 37.6043 56.3357 37.6889 56.6177 37.6889C56.7587 37.6889 56.8997 37.6748 57.0407 37.6325C57.1817 37.5902 57.365 37.5197 57.5765 37.421V37.9004C57.3791 37.9991 57.1958 38.0555 57.0407 38.0978C56.8856 38.126 56.7164 38.1542 56.5331 38.1542ZM56.9843 34.9253C56.7587 34.9253 56.5472 35.024 56.3498 35.2355C56.1524 35.4329 55.9973 35.7149 55.8986 36.0815H55.9409C56.4344 36.0815 56.8151 36.011 57.083 35.8841C57.3509 35.7572 57.4778 35.5739 57.4778 35.3201C57.4778 35.2073 57.4355 35.1086 57.365 35.0381C57.2663 34.9535 57.1535 34.9253 56.9843 34.9253Z" fill="#BDDBFF"/>
<path d="M60.5792 38.0835L61.0586 35.8275C61.1009 35.6019 61.1291 35.4468 61.1291 35.3622C61.1291 35.2212 61.0868 35.1225 61.0163 35.0379C60.9458 34.9533 60.8189 34.911 60.6497 34.911C60.4523 34.911 60.269 34.9815 60.0857 35.1084C59.9024 35.2353 59.7473 35.4186 59.6063 35.6583C59.4653 35.898 59.3666 36.1941 59.2961 36.5325L58.9718 38.0694H58.4219L59.1833 34.5021H59.6345L59.564 35.1648H59.5922C59.8037 34.8969 60.0011 34.7136 60.1985 34.6008C60.3959 34.488 60.5933 34.4316 60.8048 34.4316C61.0868 34.4316 61.2983 34.5021 61.4534 34.6572C61.6085 34.8123 61.6931 35.0238 61.6931 35.2917C61.6931 35.4609 61.6649 35.6583 61.6226 35.8698L61.1573 38.0553H60.5792V38.0835Z" fill="#BDDBFF"/>
<path d="M63.6965 38.1541C63.2735 38.1541 62.9492 38.0413 62.7236 37.8016C62.498 37.576 62.3711 37.2376 62.3711 36.8146C62.3711 36.3775 62.4557 35.9827 62.6108 35.6161C62.7659 35.2495 62.9915 34.9675 63.2735 34.756C63.5555 34.5445 63.8798 34.4458 64.2323 34.4458C64.5284 34.4458 64.8245 34.5022 65.1065 34.615L64.9514 35.0803C64.6976 34.9675 64.4579 34.9111 64.2464 34.9111C64.0067 34.9111 63.7811 34.9957 63.5837 35.1649C63.3863 35.3341 63.2312 35.5597 63.1184 35.8558C63.0056 36.1519 62.9492 36.4762 62.9492 36.8146C62.9492 37.0966 63.0197 37.3081 63.1607 37.4632C63.3017 37.6183 63.4991 37.6888 63.7529 37.6888C63.908 37.6888 64.049 37.6606 64.19 37.6183C64.331 37.576 64.472 37.5196 64.5989 37.4632V37.9285C64.331 38.0836 64.0208 38.1541 63.6965 38.1541Z" fill="#BDDBFF"/>
<path d="M65.3729 34.5161H65.9228L66.1625 36.2927C66.1907 36.4478 66.2048 36.6593 66.2189 36.9554C66.233 37.2515 66.2471 37.4771 66.2471 37.6604H66.2612C66.3317 37.4771 66.4304 37.2515 66.5432 37.0118C66.656 36.7721 66.7406 36.6029 66.797 36.5042L67.8545 34.5302H68.4326L66.1766 38.7038C65.9792 39.0704 65.7818 39.3383 65.5844 39.4793C65.387 39.6203 65.1473 39.6908 64.8653 39.6908C64.7102 39.6908 64.5551 39.6626 64.4141 39.6203V39.1832C64.5551 39.2255 64.6961 39.2396 64.8371 39.2396C65.0204 39.2396 65.1614 39.1832 65.2883 39.0704C65.4152 38.9576 65.5421 38.8025 65.6549 38.591L65.9087 38.1539L65.3729 34.5161Z" fill="#BDDBFF"/>
<path d="M68.9844 36.0672L69.0972 35.5596H70.6482L70.5354 36.0672H68.9844Z" fill="#BDDBFF"/>
<path d="M71.6499 38.0837H71.0859L72.087 33.332H74.4699L74.3712 33.8255H72.5241L72.1716 35.5598H73.8918L73.7931 36.0533H72.0729L71.6499 38.0837Z" fill="#BDDBFF"/>
<path d="M75.5565 38.1542C75.1617 38.1542 74.8515 38.0414 74.6118 37.8017C74.3862 37.562 74.2734 37.2377 74.2734 36.8147C74.2734 36.4058 74.358 36.011 74.5131 35.6444C74.6682 35.2637 74.8938 34.9817 75.1617 34.7702C75.4296 34.5587 75.7257 34.46 76.0359 34.46C76.3602 34.46 76.614 34.5305 76.7832 34.6715C76.9524 34.8125 77.037 35.0099 77.037 35.2778C77.037 35.6726 76.8537 35.9687 76.5012 36.1943C76.1346 36.4199 75.627 36.5327 74.9502 36.5327H74.8374L74.8233 36.7865C74.8233 37.0685 74.8938 37.2941 75.0207 37.4492C75.1476 37.6043 75.3591 37.6889 75.6411 37.6889C75.7821 37.6889 75.9231 37.6748 76.0641 37.6325C76.2051 37.5902 76.3884 37.5197 76.5999 37.421V37.9004C76.4025 37.9991 76.2192 38.0555 76.0641 38.0978C75.909 38.126 75.7398 38.1542 75.5565 38.1542ZM76.0077 34.9253C75.7821 34.9253 75.5706 35.024 75.3732 35.2355C75.1758 35.4329 75.0207 35.7149 74.922 36.0815H74.9643C75.4578 36.0815 75.8385 36.011 76.1064 35.8841C76.3743 35.7572 76.5012 35.5739 76.5012 35.3201C76.5012 35.2073 76.4589 35.1086 76.3884 35.0381C76.2897 34.9535 76.1769 34.9253 76.0077 34.9253Z" fill="#BDDBFF"/>
<path d="M78.8261 38.1542C78.4313 38.1542 78.1211 38.0414 77.8814 37.8017C77.6558 37.562 77.543 37.2377 77.543 36.8147C77.543 36.4058 77.6276 36.011 77.7827 35.6444C77.9378 35.2637 78.1634 34.9817 78.4313 34.7702C78.6992 34.5587 78.9953 34.46 79.3055 34.46C79.6298 34.46 79.8836 34.5305 80.0528 34.6715C80.222 34.8125 80.3066 35.0099 80.3066 35.2778C80.3066 35.6726 80.1233 35.9687 79.7708 36.1943C79.4042 36.4199 78.8966 36.5327 78.2198 36.5327H78.107L78.0929 36.7865C78.0929 37.0685 78.1634 37.2941 78.2903 37.4492C78.4172 37.6043 78.6287 37.6889 78.9107 37.6889C79.0517 37.6889 79.1927 37.6748 79.3337 37.6325C79.4747 37.5902 79.658 37.5197 79.8695 37.421V37.9004C79.6721 37.9991 79.4888 38.0555 79.3337 38.0978C79.1927 38.126 79.0235 38.1542 78.8261 38.1542ZM79.2773 34.9253C79.0517 34.9253 78.8402 35.024 78.6428 35.2355C78.4454 35.4329 78.2903 35.7149 78.1916 36.0815H78.2339C78.7274 36.0815 79.1081 36.011 79.376 35.8841C79.6439 35.7572 79.7708 35.5739 79.7708 35.3201C79.7708 35.2073 79.7285 35.1086 79.658 35.0381C79.5734 34.9535 79.4465 34.9253 79.2773 34.9253Z" fill="#BDDBFF"/>
<path d="M82.5195 38.0837L83.5206 33.332H84.0705L83.1681 37.5902H85.0011L84.8883 38.0837H82.5195Z" fill="#BDDBFF"/>
<path d="M86.1437 38.0837H85.5938L86.3552 34.5164H86.905L86.1437 38.0837ZM86.5102 33.614C86.5102 33.4871 86.5385 33.3884 86.609 33.3179C86.6795 33.2474 86.764 33.2051 86.8768 33.2051C87.0742 33.2051 87.1588 33.3038 87.1588 33.5012C87.1588 33.614 87.1165 33.7268 87.046 33.7973C86.9755 33.8678 86.8909 33.9242 86.7922 33.9242C86.7076 33.9242 86.6371 33.896 86.5807 33.8396C86.5384 33.7832 86.5102 33.7127 86.5102 33.614Z" fill="#BDDBFF"/>
<path d="M88.3698 37.7031C88.4826 37.7031 88.6518 37.6749 88.8351 37.6185V38.0415C88.7646 38.0697 88.6659 38.0979 88.5672 38.1261C88.4544 38.1543 88.3698 38.1543 88.3134 38.1543C88.0455 38.1543 87.834 38.0838 87.693 37.9569C87.552 37.83 87.4815 37.6326 87.4815 37.3788C87.4815 37.2378 87.4956 37.0686 87.5379 36.8853L87.9468 34.9254H87.3828L87.4251 34.6857L88.0314 34.4319L88.4403 33.6846H88.7646L88.5813 34.5024H89.4696L89.385 34.9113H88.4967L88.0737 36.8712C88.0314 37.0545 88.0173 37.2096 88.0173 37.2942C88.0173 37.4211 88.0455 37.5057 88.116 37.5762C88.1724 37.6749 88.257 37.7031 88.3698 37.7031Z" fill="#BDDBFF"/>
<path d="M89.9796 38.0837H89.4297L90.1911 34.5164H90.741L89.9796 38.0837ZM90.3603 33.614C90.3603 33.4871 90.3885 33.3884 90.459 33.3179C90.5295 33.2474 90.6141 33.2051 90.7269 33.2051C90.9243 33.2051 91.0089 33.3038 91.0089 33.5012C91.0089 33.614 90.9666 33.7268 90.8961 33.7973C90.8256 33.8678 90.741 33.9242 90.6423 33.9242C90.5577 33.9242 90.4872 33.896 90.4308 33.8396C90.3885 33.7832 90.3603 33.7127 90.3603 33.614Z" fill="#BDDBFF"/>
<path d="M94.5215 34.5163L94.437 34.8688L93.746 34.9534C93.8306 35.0944 93.873 35.2636 93.873 35.461C93.873 35.8699 93.7461 36.2083 93.4922 36.448C93.2385 36.6877 92.9 36.8146 92.477 36.8146C92.3642 36.8146 92.2656 36.8005 92.2092 36.7864C91.9131 36.8992 91.758 37.0402 91.758 37.2094C91.758 37.294 91.8003 37.3504 91.8708 37.3927C91.9413 37.4209 92.04 37.4491 92.181 37.4632L92.5617 37.5055C92.9565 37.5478 93.2385 37.6465 93.4218 37.7875C93.6051 37.9285 93.6897 38.14 93.6897 38.422C93.6897 38.8168 93.5345 39.127 93.2103 39.3526C92.9 39.5782 92.4489 39.6769 91.8708 39.6769C91.4478 39.6769 91.1235 39.5923 90.8838 39.4372C90.644 39.2821 90.5312 39.0565 90.5312 38.7604C90.5312 38.5348 90.6159 38.3374 90.771 38.1682C90.9261 37.999 91.1798 37.858 91.5323 37.7452C91.3631 37.6606 91.2785 37.5196 91.2785 37.3504C91.2785 37.1953 91.335 37.0684 91.4478 36.9697C91.5605 36.8569 91.7156 36.7582 91.913 36.6736C91.772 36.6031 91.6593 36.5044 91.5747 36.3634C91.4901 36.2224 91.4478 36.0673 91.4478 35.884C91.4478 35.461 91.5746 35.1226 91.8425 34.8547C92.0963 34.5868 92.4347 34.4458 92.8295 34.4458C92.9987 34.4458 93.168 34.474 93.3372 34.5163H94.5215ZM91.053 38.7181C91.053 38.8873 91.1235 39.0142 91.2645 39.1129C91.4055 39.2116 91.617 39.2539 91.899 39.2539C92.2938 39.2539 92.6039 39.1834 92.8295 39.0424C93.0551 38.9014 93.168 38.704 93.168 38.4643C93.168 38.3233 93.1116 38.2246 92.9987 38.14C92.886 38.0554 92.6885 38.0131 92.4065 37.9708L91.8848 37.9144C91.631 37.9708 91.4196 38.0695 91.2927 38.1964C91.1235 38.3656 91.053 38.5207 91.053 38.7181ZM91.9553 35.8699C91.9553 36.0532 91.9976 36.1942 92.0963 36.2929C92.195 36.3916 92.3361 36.4339 92.5052 36.4339C92.6745 36.4339 92.8296 36.3916 92.9565 36.2929C93.0834 36.2083 93.182 36.0814 93.2525 35.9122C93.323 35.7571 93.3513 35.5738 93.3513 35.3905C93.3513 35.2072 93.3089 35.0803 93.2103 34.9816C93.1116 34.8829 92.9846 34.8406 92.8013 34.8406C92.6321 34.8406 92.4771 34.8829 92.3643 34.9675C92.2373 35.0521 92.1387 35.179 92.0682 35.3341C91.9977 35.5174 91.9553 35.6866 91.9553 35.8699Z" fill="#BDDBFF"/>
<path d="M96.3523 34.46C96.5497 34.46 96.733 34.5164 96.8881 34.6151C97.0432 34.7279 97.1701 34.883 97.2547 35.0804H97.297L97.5085 34.5164H97.9174L97.156 38.0837H96.7189L96.8035 37.4069H96.7753C96.3946 37.9004 95.9857 38.1542 95.5486 38.1542C95.2525 38.1542 95.0128 38.0414 94.8436 37.8299C94.6744 37.6184 94.5898 37.3223 94.5898 36.9557C94.5898 36.5045 94.6603 36.0815 94.8154 35.7008C94.9705 35.3201 95.182 35.0099 95.4499 34.7984C95.7319 34.5587 96.028 34.46 96.3523 34.46ZM95.7319 37.703C95.9434 37.703 96.1549 37.6043 96.3523 37.4069C96.5638 37.2095 96.733 36.9416 96.8599 36.6173C96.9868 36.293 97.0573 35.9687 97.0573 35.6444C97.0573 35.4188 97.0009 35.2496 96.874 35.1086C96.7471 34.9817 96.592 34.9112 96.3946 34.9112C96.169 34.9112 95.9575 35.0099 95.7601 35.1932C95.5627 35.3765 95.4076 35.6303 95.3089 35.9546C95.1961 36.2789 95.1397 36.6032 95.1397 36.9557C95.1397 37.2095 95.1961 37.3928 95.2948 37.5056C95.4076 37.6325 95.5486 37.703 95.7319 37.703Z" fill="#BDDBFF"/>
<path d="M99.3151 37.7031C99.4279 37.7031 99.5971 37.6749 99.7804 37.6185V38.0415C99.7099 38.0697 99.6112 38.0979 99.5125 38.1261C99.3997 38.1543 99.3151 38.1543 99.2587 38.1543C98.9908 38.1543 98.7793 38.0838 98.6383 37.9569C98.4973 37.83 98.4268 37.6326 98.4268 37.3788C98.4268 37.2378 98.4409 37.0686 98.4832 36.8853L98.8921 34.9254H98.3281L98.3704 34.6857L98.9767 34.4319L99.3856 33.6846H99.7099L99.5266 34.5024H100.415L100.33 34.9113H99.442L99.019 36.8712C98.9767 37.0545 98.9626 37.2096 98.9626 37.2942C98.9626 37.4211 98.9908 37.5057 99.0613 37.5762C99.1177 37.6749 99.2023 37.7031 99.3151 37.7031Z" fill="#BDDBFF"/>
<path d="M100.937 38.0837H100.387L101.148 34.5164H101.698L100.937 38.0837ZM101.303 33.614C101.303 33.4871 101.331 33.3884 101.402 33.3179C101.472 33.2474 101.557 33.2051 101.67 33.2051C101.867 33.2051 101.952 33.3038 101.952 33.5012C101.952 33.614 101.91 33.7268 101.839 33.7973C101.769 33.8678 101.684 33.9242 101.585 33.9242C101.501 33.9242 101.43 33.896 101.374 33.8396C101.331 33.7832 101.303 33.7127 101.303 33.614Z" fill="#BDDBFF"/>
<path d="M103.964 34.4741C104.373 34.4741 104.697 34.601 104.937 34.8407C105.177 35.0804 105.289 35.4188 105.289 35.8418C105.289 36.2507 105.205 36.6314 105.05 36.998C104.895 37.3646 104.683 37.6466 104.415 37.844C104.147 38.0414 103.851 38.1401 103.513 38.1401C103.09 38.1401 102.766 38.0132 102.54 37.7735C102.3 37.5338 102.188 37.1954 102.188 36.7724C102.188 36.3635 102.272 35.9687 102.427 35.6162C102.582 35.2496 102.794 34.9676 103.062 34.7843C103.344 34.5728 103.64 34.4741 103.964 34.4741ZM104.74 35.7713C104.74 35.5175 104.669 35.3201 104.542 35.165C104.401 35.0099 104.218 34.9253 103.992 34.9253C103.753 34.9253 103.541 35.0099 103.358 35.165C103.174 35.3201 103.019 35.5457 102.921 35.8277C102.822 36.1097 102.766 36.434 102.766 36.7724C102.766 37.0544 102.836 37.28 102.977 37.4351C103.118 37.5902 103.315 37.6748 103.569 37.6748C103.795 37.6748 103.992 37.5902 104.176 37.4351C104.359 37.28 104.5 37.0544 104.599 36.7583C104.683 36.4763 104.74 36.152 104.74 35.7713Z" fill="#BDDBFF"/>
<path d="M107.985 38.0835L108.465 35.8275C108.507 35.6019 108.535 35.4468 108.535 35.3622C108.535 35.2212 108.493 35.1225 108.423 35.0379C108.352 34.9533 108.225 34.911 108.056 34.911C107.859 34.911 107.675 34.9815 107.492 35.1084C107.309 35.2353 107.154 35.4186 107.013 35.6583C106.872 35.898 106.773 36.1941 106.702 36.5325L106.378 38.0694H105.828L106.59 34.5021H107.041L106.97 35.1648H106.998C107.21 34.8969 107.407 34.7136 107.605 34.6008C107.802 34.488 108 34.4316 108.211 34.4316C108.493 34.4316 108.705 34.5021 108.86 34.6572C109.015 34.8123 109.099 35.0238 109.099 35.2917C109.099 35.4609 109.071 35.6583 109.029 35.8698L108.564 38.0553H107.985V38.0835Z" fill="#BDDBFF"/>
</svg>
