<svg width="120" height="52" viewBox="0 0 120 52" fill="none" xmlns="http://www.w3.org/2000/svg">
<g clip-path="url(#clip0_37_245)">
<path fill-rule="evenodd" clip-rule="evenodd" d="M120.001 51.9642H103.39C103.238 51.9642 102.959 51.2978 102.879 51.159C100.595 47.0562 98.3104 42.9349 96.0392 38.8401C93.6076 43.1994 91.2431 47.6314 88.8194 51.9973C83.3793 52.0105 77.9865 51.9708 72.5938 51.984C73.2049 50.8483 73.8555 49.7376 74.5061 48.6217C79.0433 40.8273 83.5121 32.9285 88.0558 25.1276C83.2269 16.7383 78.3256 8.41635 73.4704 0.0468488C73.4573 0.0468488 73.4244 -0.0060391 73.4573 0.000571884H90.1469C92.2 3.7133 94.1991 7.47098 96.2179 11.2102C98.317 7.50536 100.342 3.72652 102.422 0.000571884H118.553C118.566 0.0680039 118.52 0.139402 118.487 0.19229C113.778 8.42296 108.957 16.6788 104.254 24.9226C109.481 33.9453 114.807 42.9614 120.001 51.9642Z" fill="white"/>
<path fill-rule="evenodd" clip-rule="evenodd" d="M80.814 20.1923C81.2367 21.9053 81.4815 23.7898 81.4815 25.7718C81.4815 31.958 79.6831 36.5432 77.1831 40.2725C76.7591 40.9042 76.3298 41.5108 75.8664 42.0898C74.5104 43.8028 72.8704 45.3642 71.0393 46.6618C69.809 47.5321 68.525 48.3221 67.1035 48.9867C64.2724 50.312 60.8536 51.3459 56.9113 51.3459C50.7478 51.3459 46.1969 49.4759 42.5137 46.9057C38.8293 44.3303 35.9589 40.924 34.0074 36.6289C32.6985 33.7501 31.8386 30.4296 31.7391 26.3851C31.6933 24.3819 31.9446 22.4051 32.3084 20.6921C33.2338 16.372 35.0532 12.9855 37.3541 10.0671C39.6565 7.15408 42.5726 4.87533 46.0974 3.15571C47.4796 2.48448 49.028 1.91083 50.7151 1.49543C52.4009 1.08004 54.2661 0.79651 56.2831 0.79651H56.3158C58.287 0.705518 60.3772 1.02069 62.0172 1.38334C63.724 1.75918 65.3051 2.33282 66.7135 2.96449C71.0786 4.92808 74.3324 7.8662 76.9515 11.5362C78.6779 13.9402 79.9737 16.8256 80.814 20.1923ZM60.9728 37.3608C61.1311 36.7278 61.0853 35.9168 61.0853 35.0807V16.0423C61.0853 15.2247 60.9924 14.5917 60.7542 13.9996C60.5356 13.4589 60.1992 12.9657 59.8013 12.5635C59.0278 11.7802 57.8642 11.0747 56.4022 11.1867C55.6941 11.2395 55.1064 11.4624 54.5907 11.7854C53.6313 12.3921 52.9036 13.3218 52.6064 14.5535C52.4546 15.1785 52.4612 15.9764 52.4612 16.7992V35.8377C52.4612 36.2465 52.4402 36.6421 52.4939 36.9916C52.6326 37.9925 53.0829 38.7956 53.6706 39.3956C54.431 40.1657 55.609 40.8119 57.1299 40.6471C59.0945 40.4374 60.5356 39.1384 60.9728 37.3608ZM32.4145 14.2172H14.8415C14.7682 16.3904 14.8284 18.7958 14.8075 20.9822C19.5561 21.0218 24.378 20.9888 29.1606 20.9954V35.1796C24.3453 35.1928 19.4907 35.1599 14.7028 35.1928C14.7093 40.8185 14.7355 46.34 14.7355 51.9657C14.7355 51.9855 14.729 51.9921 14.7224 51.9987H0.072217C0.0460395 52.0053 0.0460395 51.9855 0.0264065 51.9855C-0.00762423 34.7115 -0.00762423 17.3267 0.0198621 0.0461554C0.0198621 0.0263745 0.0198621 0 0.0329508 0H31.4158C31.4354 0 31.442 0 31.4485 0.0131873C31.7784 4.74345 32.0964 9.48032 32.4145 14.2172Z" fill="white"/>
</g>
<defs>
<clipPath id="clip0_37_245">
<rect width="120" height="52" fill="white"/>
</clipPath>
</defs>
</svg>
