<svg width="73" height="81" viewBox="0 0 73 81" fill="none" xmlns="http://www.w3.org/2000/svg">
<path d="M11.1875 32.3242H16.6118V63.9642H11.1875V32.3242Z" fill="#115099"/>
<path d="M22.4883 32.3242H27.9126V63.9642H22.4883V32.3242Z" fill="#115099"/>
<path d="M33.7891 32.3242H39.2134V63.9642H33.7891V32.3242Z" fill="#115099"/>
<path d="M45.0898 32.3242H50.5142V63.9642H45.0898V32.3242Z" fill="#115099"/>
<path d="M56.3867 32.3242H61.811V63.9642H56.3867V32.3242Z" fill="#115099"/>
<path d="M68.1398 70.2925H63.6198V65.7725H9.37984V70.2925H4.85984V74.8125H0.339844V80.2361H72.6598V74.8125H68.1398V70.2925Z" fill="#115099"/>
<path d="M64.9749 27.8046C64.9749 27.0555 64.3677 26.4489 63.6192 26.4489L9.37918 26.4482C8.63005 26.4482 8.02344 27.0549 8.02344 27.804C8.02344 28.5537 8.63005 29.1604 9.37918 29.1604H63.6192C64.3677 29.1604 64.9749 28.5537 64.9749 27.8046V27.8046Z" fill="#115099"/>
<path d="M71.4626 20.9373L39.1349 0.732881C37.6902 -0.171377 35.3092 -0.171377 33.8646 0.732881L1.53688 20.9373C0.0947445 21.8384 0.120605 22.8089 0.263114 23.3077C0.406256 23.8052 0.900628 24.6407 2.60012 24.6407H70.4001C72.1008 24.6407 72.5939 23.8052 72.7371 23.3064C72.8796 22.8077 72.9042 21.8384 71.4621 20.9373L71.4626 20.9373Z" fill="#115099"/>
</svg>
