<svg width="84" height="78" viewBox="0 0 84 78" fill="none" xmlns="http://www.w3.org/2000/svg">
<path d="M0 72.6367C0 74.0584 0.565932 75.4226 1.57231 76.4285C2.57871 77.4344 3.94351 78.0001 5.36587 78.0001H78.6341C80.0565 78.0001 81.4213 77.4344 82.4277 76.4285C83.4341 75.4226 84 74.0584 84 72.6367V46.5761L0.00130427 46.5752L0 72.6367Z" fill="#115099"/>
<path d="M78.6332 24.4278H67.7412V10.8992C67.7374 8.00955 66.5877 5.2389 64.5438 3.19494C62.4989 1.15199 59.7279 0.00265481 56.836 0H27.1631C24.2711 0.00282833 21.5002 1.15204 19.4552 3.19494C17.4113 5.23885 16.2615 8.00955 16.2578 10.8992V24.4278H5.36587C3.94353 24.4278 2.57871 24.9925 1.57231 25.9985C0.565908 27.0044 0 28.3686 0 29.7912V38.4638H83.9987V29.7912C83.9987 28.3686 83.4328 27.0044 82.4264 25.9985C81.42 24.9925 80.0552 24.4278 78.6328 24.4278H78.6332ZM27.1638 10.8116L56.9236 10.8983V24.4279H27.0962L27.1638 10.8116Z" fill="#115099"/>
</svg>
