<svg width="72" height="80" viewBox="0 0 72 80" fill="none" xmlns="http://www.w3.org/2000/svg">
<path d="M32.6441 39.7221V36.1524C32.6441 36.1524 22.2903 36.1413 21.522 36.1524C20.9014 36.1636 19.8284 36.2635 18.8094 37.1396L2.02083 50.7143C0.966703 51.5664 0.370117 52.8604 0.403688 54.216C0.43726 55.5716 1.099 56.8305 2.19112 57.63L16.1325 67.8109C16.9088 68.3762 17.8105 68.6507 18.7023 68.6507C20.0466 68.6507 21.3735 68.0319 22.2307 66.8617C23.6514 64.9142 23.2245 62.1854 21.2798 60.7634L11.9227 53.9286L23.1827 44.8237L23.181 72.8766L32.6286 79.7416H32.6459L32.6464 44.993L27.9494 47.4802V39.7229L32.6441 39.7221Z" fill="#115099"/>
<path d="M70.2372 50.7147L53.4458 37.1383C52.6378 36.4843 51.6679 36.1701 50.7031 36.1701L39.7048 36.1528V34.0574C42.8571 32.6718 45.0792 29.5495 45.1524 25.8955H26.9609C27.0642 30.8397 31.0892 34.8241 36.0592 34.8241C36.115 34.8241 36.1669 34.8163 36.2177 34.8163V48.8971H39.5541V79.7443H39.5921L49.0971 72.8364L49.0976 44.8464L60.3342 53.9324L50.9771 60.7673C49.0278 62.1897 48.6043 64.918 50.0245 66.8656C50.88 68.0352 52.2053 68.6546 53.5546 68.6546C54.4453 68.6546 55.3453 68.38 56.1211 67.8147L70.0642 57.6339C71.1563 56.8336 71.8165 55.5736 71.8516 54.2199C71.8879 52.861 71.2913 51.567 70.2372 50.7149L70.2372 50.7147ZM44.0672 47.4797L39.7068 45.17V39.7224H44.0672V47.4797Z" fill="#115099"/>
<path d="M45.0985 21.1032V0.128906H26.9799V21.1032L18.6992 21.1038V23.8403H53.3735V21.1038L45.0985 21.1032ZM39.9004 21.7092L36.1241 18.9615L32.3238 21.6697L33.7679 17.2299L30.0218 14.4492L34.6854 14.4542L36.1748 10.0318L37.6112 14.4715L42.3222 14.4793L38.5014 17.2572L39.9004 21.7092ZM42.5974 8.90794H29.4288V2.59036H42.5985V8.90794H42.5974Z" fill="#115099"/>
</svg>
