<svg width="17" height="16" viewBox="0 0 17 16" fill="none" xmlns="http://www.w3.org/2000/svg">
<g clip-path="url(#clip0_504_11923)">
<g clip-path="url(#clip1_504_11923)">
<path d="M12.9448 6.49734C11.7218 6.50026 10.5289 6.11888 9.53447 5.40706V10.3715C9.53414 11.291 9.2531 12.1884 8.72894 12.9439C8.20478 13.6993 7.46248 14.2767 6.6013 14.5989C5.74012 14.921 4.80111 14.9726 3.90982 14.7467C3.01853 14.5208 2.21746 14.0282 1.61371 13.3347C1.00996 12.6412 0.632307 11.78 0.53126 10.8661C0.430212 9.95216 0.610581 9.0292 1.04825 8.22057C1.48592 7.41195 2.16002 6.75622 2.98043 6.34105C3.80083 5.92589 4.72843 5.77108 5.63919 5.89734V8.39428C5.22243 8.26319 4.7749 8.26714 4.36051 8.40557C3.94612 8.54399 3.58607 8.80982 3.33177 9.16508C3.07747 9.52034 2.94193 9.94687 2.9445 10.3838C2.94708 10.8206 3.08763 11.2456 3.3461 11.5978C3.60456 11.95 3.96772 12.2116 4.38371 12.3451C4.7997 12.4787 5.24725 12.4773 5.66244 12.3414C6.07763 12.2054 6.43924 11.9417 6.69562 11.5879C6.952 11.2341 7.09004 10.8084 7.09003 10.3715V0.666504H9.53447C9.53278 0.872932 9.55007 1.07908 9.58614 1.28234C9.67108 1.73608 9.8477 2.16773 10.1052 2.55087C10.3627 2.93402 10.6956 3.26061 11.0836 3.51067C11.6357 3.8757 12.2829 4.07025 12.9448 4.07012V6.49734Z" fill="white"/>
</g>
</g>
<defs>
<clipPath id="clip0_504_11923">
<rect width="16" height="16" fill="white" transform="translate(0.5)"/>
</clipPath>
<clipPath id="clip1_504_11923">
<rect width="16" height="14.2222" fill="white" transform="translate(0.5 0.666504)"/>
</clipPath>
</defs>
</svg>
