<svg width="17" height="16" viewBox="0 0 17 16" fill="none" xmlns="http://www.w3.org/2000/svg">
<g clip-path="url(#clip0_504_11918)">
<g clip-path="url(#clip1_504_11918)">
<path d="M14.8562 4.74072C14.8656 4.88135 14.8656 5.0251 14.8656 5.16572C14.8656 9.50009 11.5656 14.497 5.53438 14.497C3.675 14.497 1.95 13.9595 0.5 13.0251C0.7625 13.0563 1.01875 13.0657 1.29062 13.0657C2.825 13.0657 4.23438 12.547 5.3625 11.6657C3.92188 11.6345 2.7125 10.6907 2.29688 9.39072C2.5 9.42197 2.70313 9.44072 2.91563 9.44072C3.20938 9.44072 3.50313 9.40009 3.77813 9.32822C2.275 9.02509 1.15 7.70322 1.15 6.10947V6.06885C1.5875 6.3126 2.09375 6.46572 2.63125 6.48447C1.74687 5.89697 1.16875 4.89072 1.16875 3.75322C1.16875 3.14385 1.33125 2.58447 1.61563 2.09697C3.23125 4.09072 5.65625 5.39072 8.37813 5.53447C8.32813 5.29072 8.29688 5.0376 8.29688 4.78447C8.29688 2.97822 9.75937 1.50635 11.575 1.50635C12.5187 1.50635 13.3719 1.90322 13.9719 2.54072C14.7125 2.4001 15.425 2.1251 16.0531 1.7501C15.8094 2.5126 15.2906 3.1501 14.6125 3.55635C15.2719 3.48447 15.9125 3.30322 16.5 3.0501C16.0531 3.69697 15.4937 4.2751 14.8562 4.74072Z" fill="white"/>
</g>
</g>
<defs>
<clipPath id="clip0_504_11918">
<rect width="16" height="16" fill="white" transform="translate(0.5)"/>
</clipPath>
<clipPath id="clip1_504_11918">
<rect width="16" height="16" fill="white" transform="translate(0.5)"/>
</clipPath>
</defs>
</svg>
