<svg width="105" height="84" viewBox="0 0 105 84" fill="none" xmlns="http://www.w3.org/2000/svg">
<path d="M51.7343 46.0992C50.3092 41.856 46.3637 39.0275 41.8707 39.0275H39.5687L33.5405 55.3475L31.3487 45.8821H31.5681C32.3357 45.8821 32.9931 45.2295 32.9931 44.4675V41.8561C32.9931 41.0941 32.3356 40.4415 31.5681 40.4415H28.1707C27.4031 40.4415 26.7456 41.0942 26.7456 41.8561V44.4675C26.7456 45.2295 27.4031 45.8821 28.1707 45.8821H28.3901L26.1983 55.3475L20.1701 38.9189H17.8681C13.3743 38.9189 9.42872 41.7475 8.0045 45.9906L0.770709 68.5122C-0.325604 71.7763 1.09945 75.3667 4.0589 77.107C11.7307 81.568 20.7183 83.9616 29.8149 83.9616C39.0211 83.9616 47.8985 81.568 55.5709 77.107C58.5303 75.366 59.9545 71.7756 58.8591 68.5122L51.7343 46.0992Z" fill="#115099"/>
<path d="M47.3485 19.9875C47.3485 29.5417 39.5467 37.2865 29.9223 37.2865C20.2979 37.2865 12.4961 29.5417 12.4961 19.9875C12.4961 10.4333 20.2979 2.68848 29.9223 2.68848C39.5467 2.68848 47.3485 10.4333 47.3485 19.9875Z" fill="#115099"/>
<path d="M80.8884 0.837891C67.8458 0.837891 57.2148 9.21568 57.2148 19.5515C57.2148 24.3389 59.5168 28.7999 63.3522 32.0631C62.6948 34.1305 61.4891 36.9589 59.5159 39.2441C58.2009 40.8758 59.4065 43.2695 61.5985 43.0525C68.6129 41.9642 72.9965 39.7883 75.7365 37.7211C77.3801 38.0474 79.1339 38.156 80.8877 38.156C93.9303 38.156 104.561 29.7782 104.561 19.4424C104.562 9.21574 93.9308 0.837948 80.8877 0.837948L80.8884 0.837891ZM68.7228 22.9243C66.7504 22.9243 65.2153 21.4011 65.2153 19.4423C65.2153 17.4843 66.7496 15.9603 68.7228 15.9603C70.6953 15.9603 72.2304 17.4835 72.2304 19.4423C72.2304 21.4011 70.586 22.9243 68.7228 22.9243ZM80.8884 22.9243C78.916 22.9243 77.3809 21.4011 77.3809 19.4423C77.3809 17.4843 78.9152 15.9603 80.8884 15.9603C82.8608 15.9603 84.396 17.4835 84.396 19.4423C84.396 21.4011 82.7516 22.9243 80.8884 22.9243ZM93.054 22.9243C91.0816 22.9243 89.5464 21.4011 89.5464 19.4423C89.5464 17.4843 91.0808 15.9603 93.054 15.9603C95.0264 15.9603 96.5616 17.4835 96.5616 19.4423C96.5616 21.4011 95.0273 22.9243 93.054 22.9243Z" fill="#115099"/>
</svg>
