<svg width="91" height="90" viewBox="0 0 91 90" fill="none" xmlns="http://www.w3.org/2000/svg">
<path d="M45.5004 46C57.7944 46 67.7508 35.7 67.7508 23C67.7508 10.2998 57.7942 0 45.5004 0C33.2066 0 23.25 10.3 23.25 23C23.25 35.7002 33.2066 46 45.5004 46ZM27.1108 25.9L26.1966 22.8002C25.9932 22.0998 26.1966 21.4002 26.6027 20.8004C27.0087 20.2005 27.7203 19.9005 28.5332 19.9005H41.538C42.2496 19.9005 43.0617 20.3002 43.4686 20.9008C43.4686 20.9008 43.57 21.0006 43.57 21.101H47.6336C47.6336 21.0013 47.7349 20.9008 47.7349 20.9008C48.141 20.3009 48.8526 20.001 49.5634 20.001H62.7716C63.4831 20.001 64.1939 20.4007 64.6 20.9008C65.0061 21.5007 65.1081 22.201 64.9047 22.9006L63.7885 26.4003C62.6709 29.7003 59.6228 31.7999 56.0671 31.7999C52.4095 31.7999 49.1587 29.3997 48.2437 25.9001L47.5322 23.2006H43.6712L42.5536 26.401C41.4359 29.701 38.3878 31.8006 34.8322 31.8006C31.2765 31.9004 28.025 29.4004 27.1107 25.9001L27.1108 25.9Z" fill="#115099"/>
<path d="M90.0025 74.6995C88.1733 60.1997 74.153 52.5995 64.9072 49.1995L50.0733 73.7995L48.6509 56.8994L52.1051 48.9997L38.7957 48.999L42.1485 56.8987L40.8275 73.7988L26.0957 49.1988C16.8499 52.6992 2.82928 60.1992 1.00048 74.6989C0.797783 76.7985 1.71202 78.799 3.43906 79.9988C8.41764 83.3987 21.1176 89.9988 45.5015 89.9988V89.8991V89.9988C69.9871 89.9988 82.5855 83.4992 87.5639 79.9988C89.291 78.7991 90.2053 76.7985 90.0025 74.6989V74.6995ZM73.0353 77.9995H60.0297V74.5997H73.0345L73.0353 77.9995Z" fill="#115099"/>
</svg>
