<svg width="84" height="82" viewBox="0 0 84 82" fill="none" xmlns="http://www.w3.org/2000/svg">
<path d="M43.7225 14.2627H40.2763V18.4933H35.9688V21.878H40.2763V26.278H43.7225V21.878H48.03V18.4933H43.7225V14.2627Z" fill="#115099"/>
<path d="M58.7105 0.384766H25.2833C22.182 0.384766 19.7695 2.75417 19.7695 5.80007V81.6152H32.0033V53.8622H29.9358V50.4775H54.059V53.8622H51.9914L51.9908 81.6152H64.2246V5.80007C64.2246 2.75417 61.8127 0.384766 58.7108 0.384766H58.7105ZM41.9969 33.3848C34.5874 33.3848 28.7294 27.4619 28.7294 20.3542C28.7294 13.077 34.5874 7.15417 41.9969 7.15417C49.4063 7.15417 55.2644 13.077 55.2644 20.1848C55.2644 27.4619 49.4063 33.3848 41.9969 33.3848Z" fill="#115099"/>
<path d="M77.8381 24.4152H67.6719V81.6152H83.3519V29.8303C83.3519 26.7844 80.9394 24.415 77.8381 24.415V24.4152ZM77.3212 73.8304H73.875V66.0457H77.3212V73.8304ZM77.3212 58.0925H73.875V50.3078H77.3212V58.0925ZM77.3212 42.1849H73.875V34.4002H77.3212V42.1849Z" fill="#115099"/>
<path d="M0.644531 29.8302V81.615H16.3245V24.415H6.15829C3.05701 24.415 0.644531 26.7844 0.644531 29.8303V29.8302ZM6.67508 34.569H10.1213V42.3537H6.67508V34.569ZM6.67508 50.3068H10.1213V58.0915H6.67508V50.3068ZM6.67508 66.0447H10.1213V73.8294H6.67508V66.0447Z" fill="#115099"/>
</svg>
