<svg width="60" height="81" viewBox="0 0 60 81" fill="none" xmlns="http://www.w3.org/2000/svg">
<path d="M30.9794 50.754H30.9137V46.6106C32.0353 46.773 33.075 47.1988 34.0362 47.8898L35.4561 45.8619C34.0289 44.8771 32.5151 44.3266 30.9138 44.2081V43.084H29.5167V44.1861C28.1041 44.2597 26.9578 44.7001 26.076 45.5079C25.1943 46.3169 24.7555 47.3564 24.7555 48.627C24.7555 49.8976 25.1377 50.8568 25.9018 51.5035C26.666 52.1501 27.8708 52.672 29.5168 53.0686V57.3447C28.2192 57.1385 26.9609 56.4998 25.7386 55.4269L24.1445 57.3447C25.7295 58.74 27.5214 59.541 29.5174 59.7461V61.3549H30.9144L30.9138 59.7698C32.3994 59.6962 33.592 59.2558 34.4949 58.4468C35.3977 57.6396 35.8491 56.5922 35.8491 55.3057C35.8491 54.0205 35.4562 53.0393 34.6691 52.363C33.8838 51.6879 32.6538 51.152 30.9795 50.7542L30.9794 50.754ZM29.5167 50.358C28.7007 50.0934 28.1462 49.8179 27.8569 49.5314C27.5652 49.2455 27.42 48.8562 27.42 48.3635C27.42 47.8714 27.605 47.4597 27.9763 47.1294C28.3475 46.7985 28.861 46.6038 29.5173 46.5448L29.5167 50.358ZM32.5734 56.7934C32.1648 57.1316 31.6122 57.3378 30.9136 57.4101V53.4436C31.7863 53.7082 32.3836 53.9905 32.7047 54.2921C33.0248 54.5932 33.1845 55.0014 33.1845 55.5154C33.1851 56.0306 32.9808 56.4563 32.5734 56.7933L32.5734 56.7934Z" fill="#115099"/>
<path d="M58.2447 20.2473H45.1847C42.436 20.2473 40.1999 17.9907 40.1999 15.2163L40.1993 2.03591C40.1993 1.45137 40.3084 0.88873 40.494 0.358398H5.07466C2.31618 0.358398 0.0898438 2.60536 0.0898438 5.38937V75.8205C0.0898438 78.5876 2.31618 80.8515 5.07466 80.8515H54.9213C57.6629 80.8515 59.9061 78.5876 59.9061 75.8205V19.9424C59.3787 20.1334 58.8201 20.2472 58.2444 20.2472L58.2447 20.2473ZM9.99494 13.5353H36.9394C37.8579 13.5353 38.6011 14.2858 38.6011 15.2123C38.6011 16.1388 37.8579 16.8893 36.9394 16.8893H9.99494C9.07646 16.8893 8.33328 16.1388 8.33328 15.2123C8.33328 14.2865 9.07638 13.5353 9.99494 13.5353ZM29.9981 69.4647C20.5771 69.4647 12.9171 61.7338 12.9171 52.2256C12.9171 42.7174 20.5766 34.9693 29.9981 34.9693C39.4195 34.9693 47.079 42.7167 47.079 52.2256C47.079 61.7345 39.4195 69.4647 29.9981 69.4647ZM50.2311 26.9516H9.9934C9.07492 26.9516 8.33174 26.201 8.33174 25.2746C8.33174 24.3482 9.07484 23.5975 9.9934 23.5975H50.2311C51.1496 23.5975 51.8928 24.3481 51.8928 25.2746C51.8928 26.2003 51.1497 26.9516 50.2311 26.9516Z" fill="#115099"/>
<path d="M45.1845 16.8927H58.2445C58.9093 16.8927 59.524 16.4736 59.7729 15.8532C60.0387 15.2328 59.8892 14.5114 59.4239 14.0254L46.3644 0.844532C45.8829 0.358532 45.1681 0.224104 44.5534 0.475925C43.9224 0.744174 43.5234 1.34757 43.5234 2.03556V15.216C43.5228 16.1381 44.2708 16.893 45.1845 16.893L45.1845 16.8927Z" fill="#115099"/>
</svg>
