<svg width="142" height="44" viewBox="0 0 142 44" fill="none" xmlns="http://www.w3.org/2000/svg">
<g clip-path="url(#clip0_504_12021)">
<path d="M78.8334 17.5996C80.3714 17.5996 81.5606 18.8617 81.5606 20.3342V20.4043C81.5606 21.9469 80.3017 23.1389 78.8334 23.1389C77.2946 23.1389 76.1055 21.8768 76.1055 20.4043V20.3342C76.1055 18.7916 77.2946 17.5996 78.8334 17.5996Z" fill="#BDDBFF"/>
<path d="M82.1172 15.1452C82.1172 10.5876 85.6141 6.80127 90.4391 6.80127C94.0252 6.80127 96.8812 8.75159 98.1581 11.6863C98.3128 12.0417 98.1149 12.4424 97.7495 12.5681L94.2295 13.778C93.8446 13.9105 93.4346 13.6795 93.2332 13.3243C92.7109 12.4037 91.7138 11.8497 90.5793 11.8497C88.8305 11.8497 87.432 13.2521 87.432 15.1452C87.432 16.9683 88.7607 18.3706 90.5793 18.3706C91.6671 18.3706 92.6145 17.8062 93.1526 16.8699C93.3519 16.5226 93.7598 16.3122 94.1353 16.45L97.7538 17.7788C98.1171 17.9121 98.307 18.3168 98.1437 18.6683C96.8675 21.4146 94.0756 23.349 90.4391 23.349C85.6141 23.4892 82.1172 19.773 82.1172 15.1452Z" fill="#BDDBFF"/>
<path d="M99.1133 15.1454C99.1133 10.5878 102.61 6.87158 107.435 6.87158C112.19 6.87158 115.757 10.5878 115.757 15.1454C115.757 19.7031 112.26 23.4193 107.435 23.4193C102.61 23.4894 99.1133 19.7732 99.1133 15.1454ZM110.582 15.1454C110.582 13.3224 109.253 11.85 107.505 11.85C105.757 11.85 104.428 13.2523 104.428 15.1454C104.428 16.9685 105.757 18.3708 107.505 18.3708C109.253 18.4409 110.582 17.0386 110.582 15.1454Z" fill="#BDDBFF"/>
<path d="M116.945 7.92545C116.945 7.53702 117.259 7.22217 117.647 7.22217H121.629C122.016 7.22217 122.33 7.53702 122.33 7.92545V9.11532C123.309 7.71302 124.777 6.87158 126.525 6.87158C128.623 6.87158 130.162 7.71302 131.071 9.32573C132.05 7.78313 133.729 6.87158 135.616 6.87158C139.183 6.87158 141.141 9.11532 141.141 12.9718V22.4356C141.141 22.824 140.827 23.1388 140.44 23.1388H136.387C136 23.1388 135.686 22.824 135.686 22.4356V14.1638C135.686 12.481 135.127 11.5694 133.729 11.5694C132.47 11.5694 131.701 12.481 131.701 14.3742V22.4356C131.701 22.824 131.386 23.1388 130.999 23.1388H126.947C126.56 23.1388 126.246 22.824 126.246 22.4356V14.1638C126.246 12.481 125.687 11.5694 124.287 11.5694C123.029 11.5694 122.259 12.481 122.259 14.3742V22.4356C122.259 22.824 121.946 23.1388 121.558 23.1388H117.647C117.259 23.1388 116.945 22.824 116.945 22.4356V7.92545Z" fill="#BDDBFF"/>
<path d="M0.859375 7.92545C0.859375 7.53702 1.1734 7.22217 1.56078 7.22217H5.68248C6.06986 7.22217 6.38388 7.53702 6.38388 7.92545V22.4356C6.38388 22.824 6.06986 23.1388 5.68248 23.1388H1.56078C1.1734 23.1388 0.859375 22.824 0.859375 22.4356V7.92545Z" fill="#BDDBFF"/>
<path d="M8.13281 7.92547C8.13281 7.53704 8.44683 7.22219 8.83422 7.22219H12.816C13.2034 7.22219 13.5174 7.53704 13.5174 7.92547V8.97512C14.4965 7.64286 15.8951 6.87158 17.6433 6.87158C21.0699 6.87158 23.2378 9.11534 23.2378 12.9718V22.4356C23.2378 22.8239 22.9238 23.1389 22.5364 23.1389H18.4147C18.0273 23.1389 17.7133 22.8239 17.7133 22.4356V14.1638C17.7133 12.481 17.014 11.5695 15.6154 11.5695C14.3566 11.5695 13.5174 12.481 13.5174 14.3741V22.4356C13.5174 22.8239 13.2034 23.1389 12.816 23.1389H8.83422C8.44683 23.1389 8.13281 22.8239 8.13281 22.4356V7.92547Z" fill="#BDDBFF"/>
<path d="M24.3559 25.593C24.7432 25.593 25.0573 25.2781 25.0573 24.8897V7.92545C25.0573 7.53702 25.3713 7.22217 25.7587 7.22217H29.8803C30.2677 7.22217 30.5817 7.53702 30.5817 7.92545V25.8033C30.5817 28.3976 28.4838 30.5012 25.8964 30.5012H22.8242C22.5278 30.5012 22.2634 30.3144 22.1637 30.0344L20.9165 26.5328C20.7533 26.0748 21.0919 25.593 21.577 25.593H24.3559Z" fill="#BDDBFF"/>
<path d="M32.3984 17.3191V7.92545C32.3984 7.53702 32.7125 7.22217 33.0998 7.22217H37.2216C37.609 7.22217 37.923 7.53702 37.923 7.92545V16.1972C37.923 17.8801 38.6223 18.7215 40.0209 18.7215C41.2796 18.7215 42.1188 17.8801 42.1188 15.9168V7.92545C42.1188 7.53702 42.4328 7.22217 42.8202 7.22217H46.802C47.1894 7.22217 47.5034 7.53702 47.5034 7.92545V22.4356C47.5034 22.824 47.1894 23.1388 46.802 23.1388H42.8202C42.4328 23.1388 42.1188 22.824 42.1188 22.4356V21.3859C41.1398 22.7182 39.6712 23.4895 37.9929 23.4895C34.6362 23.4895 32.3984 21.2457 32.3984 17.3191Z" fill="#BDDBFF"/>
<path d="M49.1797 7.92545C49.1797 7.53702 49.4937 7.22217 49.8811 7.22217H53.793C54.1804 7.22217 54.4944 7.53702 54.4944 7.92545V10.0269C55.1937 8.27391 56.5923 7.22217 58.6902 7.22217H59.1041C59.401 7.22217 59.6657 7.40957 59.765 7.69001L61.1548 11.6124C61.3171 12.0702 60.9784 12.5511 60.4939 12.5511H57.1517C55.0538 12.5511 54.4245 13.2523 54.4245 15.7064V22.4356C54.4245 22.824 54.1104 23.1388 53.7231 23.1388H49.8811C49.4937 23.1388 49.1797 22.824 49.1797 22.4356V7.92545Z" fill="#BDDBFF"/>
<path d="M67.3642 22.5078L61.6639 8.18613C61.4801 7.72427 61.8194 7.22217 62.3154 7.22217H66.3872C66.6803 7.22217 66.9425 7.40488 67.0447 7.68035L69.6815 14.7895C69.7961 15.0985 70.2337 15.0937 70.3415 14.7822L72.7949 7.69484C72.8927 7.41187 73.1589 7.22217 73.4574 7.22217H77.4723C77.9615 7.22217 78.3011 7.71187 78.1298 8.17156L69.9821 30.044C69.8797 30.3189 69.6178 30.5012 69.325 30.5012H65.3714C64.8811 30.5012 64.5421 30.0097 64.7151 29.5497L67.3642 22.5078Z" fill="#BDDBFF"/>
<path d="M3.58667 0C5.12514 0 6.31395 1.26211 6.31395 2.73459V2.8047C6.38388 4.34729 5.12514 5.6094 3.58667 5.6094C2.11812 5.6094 0.859375 4.34729 0.859375 2.8047V2.73459C0.859375 1.26211 2.11812 0 3.58667 0Z" fill="#BDDBFF"/>
<path d="M27.8511 0C29.3896 0 30.5784 1.26211 30.5784 2.73459V2.8047C30.5784 4.34729 29.3197 5.53928 27.8511 5.53928C26.3127 5.53928 25.1239 4.27717 25.1239 2.8047V2.73459C25.0539 1.26211 26.3127 0 27.8511 0Z" fill="#BDDBFF"/>
</g>
<defs>
<clipPath id="clip0_504_12021">
<rect width="141" height="44" fill="white" transform="translate(0.5)"/>
</clipPath>
</defs>
</svg>
