<svg width="118" height="66" viewBox="0 0 118 66" fill="none" xmlns="http://www.w3.org/2000/svg">
<g clip-path="url(#clip0_504_12035)">
<path d="M60.0508 10.278V9.60537C60.0508 2.71722 62.5939 0.000140461 65.7758 0.000140461C66.546 -0.0337381 67.3126 0.122609 68.0084 0.455434V3.98029C67.4493 3.58948 66.7908 3.36635 66.1098 3.337C64.6009 3.337 63.511 4.68232 63.511 9.58187V10.3103C63.511 15.4919 64.6009 16.5552 66.1655 16.5552C66.8414 16.5205 67.4963 16.3077 68.0641 15.9384V19.2929C67.2969 19.7192 66.4264 19.9226 65.5502 19.8803C62.424 19.8803 60.0508 17.1104 60.0508 10.278Z" fill="#BDDBFF"/>
<path d="M69.7695 0.141113H73.1624V16.4935H76.7661V19.7423H69.7695V0.141113Z" fill="#BDDBFF"/>
<path d="M80.7425 0.0849609H84.3726L88.1024 19.7419H84.6803L84.0386 15.8499H80.9388L80.3235 19.7419H77.0273L80.7425 0.0849609ZM83.5347 12.7686L82.5004 6.30633L81.4398 12.7686H83.5347Z" fill="#BDDBFF"/>
<path d="M88.6895 19.0695V15.5123C89.8907 16.2114 90.84 16.605 91.7629 16.605C92.7415 16.605 93.5795 16.1291 93.5795 14.9248V14.869C93.5795 13.9878 93.2865 13.3005 91.6809 11.4528C89.3634 8.8092 88.4141 7.56081 88.4141 5.18153V5.12572C88.4141 1.9886 90.465 0.00292969 93.1634 0.00292969C94.5317 0.00292969 95.3433 0.199734 96.1812 0.61978V4.17401C95.1206 3.55716 94.476 3.2928 93.5824 3.2928C92.6331 3.2928 91.8245 3.90965 91.8245 4.97298V5.02879C91.8245 5.95406 92.1175 6.28892 93.7231 8.16591C96.4039 11.2737 96.9899 12.478 96.9899 14.7192V14.775C96.9899 17.8563 94.8394 19.8978 92.1585 19.8978C90.9539 19.8933 89.7667 19.6099 88.6895 19.0695Z" fill="#BDDBFF"/>
<path d="M97.7715 19.0695V15.5123C98.9728 16.2114 99.9221 16.605 100.845 16.605C101.824 16.605 102.662 16.1291 102.662 14.9248V14.869C102.662 13.9878 102.369 13.3005 100.763 11.4528C98.4454 8.8092 97.4961 7.56081 97.4961 5.18153V5.12572C97.4961 1.9886 99.547 0.00292969 102.245 0.00292969C103.614 0.00292969 104.425 0.199734 105.263 0.61978V4.17401C104.203 3.55716 103.558 3.2928 102.664 3.2928C101.715 3.2928 100.907 3.90965 100.907 4.97298V5.02879C100.907 5.95406 101.199 6.28892 102.805 8.16591C105.486 11.2737 106.072 12.478 106.072 14.7192V14.775C106.072 17.8563 103.921 19.8978 101.241 19.8978C100.036 19.8933 98.8487 19.6099 97.7715 19.0695Z" fill="#BDDBFF"/>
<path d="M63.763 23.0054H67.3931L71.1112 42.6594H67.7037L67.0621 38.7674H63.9593L63.344 42.6594H60.0508L63.763 23.0054ZM66.5552 35.689L65.5209 29.2267L64.4603 35.689H66.5552Z" fill="#BDDBFF"/>
<path d="M71.5273 33.1952V32.5225C71.5273 25.6344 74.0705 22.9173 77.2524 22.9173C78.0231 22.8811 78.7908 23.0354 79.4879 23.3667V26.8916C78.9288 26.5007 78.2703 26.2776 77.5893 26.2483C76.0804 26.2483 74.9905 27.5936 74.9905 32.4931V33.2216C74.9905 38.4031 76.0804 39.4665 77.645 39.4665C78.3209 39.4317 78.9758 39.219 79.5436 38.8496V42.21C78.7764 42.6363 77.9059 42.8398 77.0297 42.7975C73.9035 42.8004 71.5273 40.0275 71.5273 33.1952Z" fill="#BDDBFF"/>
<path d="M83.0627 26.3044H80.6602V23.0732H88.8639V26.3044H86.4614V42.6568H83.0627V26.3044Z" fill="#BDDBFF"/>
<path d="M90.3516 23.0732H93.759V42.6744H90.3516V23.0732Z" fill="#BDDBFF"/>
<path d="M95.4922 33.3539V32.3552C95.4922 25.8929 97.5871 22.7793 100.687 22.7793C103.787 22.7793 105.882 25.887 105.882 32.3552V33.3539C105.882 39.8161 103.787 42.9297 100.687 42.9297C97.5871 42.9297 95.4922 39.8337 95.4922 33.3539ZM102.418 33.3539V32.3552C102.418 27.3146 101.721 25.9135 100.687 25.9135C99.6527 25.9135 98.9465 27.3176 98.9465 32.3552V33.3539C98.9465 38.3944 99.6439 39.7926 100.678 39.7926C101.712 39.7926 102.418 38.4032 102.418 33.3539Z" fill="#BDDBFF"/>
<path d="M107.555 23.0732H110.739L114.182 32.9722V23.0732H117.505V42.6744H114.475L110.871 32.2849V42.6744H107.555V23.0732Z" fill="#BDDBFF"/>
<path d="M60.0508 56.2655V55.5928C60.0508 48.7047 62.5939 45.9876 65.7758 45.9876C66.5465 45.9514 67.3142 46.1057 68.0113 46.437V49.9619C67.4522 49.5711 66.7937 49.3479 66.1128 49.3186C64.6039 49.3186 63.5139 50.6639 63.5139 55.5634V56.2919C63.5139 61.4735 64.6039 62.5368 66.1684 62.5368C66.8444 62.5021 67.4992 62.2893 68.067 61.9199V65.2803C67.2998 65.7066 66.4293 65.9101 65.5532 65.8678C62.424 65.8619 60.0508 63.089 60.0508 56.2655Z" fill="#BDDBFF"/>
<path d="M68.7344 56.4242V55.4167C68.7344 48.9544 70.8293 45.8408 73.9291 45.8408C77.0289 45.8408 79.1238 48.9486 79.1238 55.4167V56.4242C79.1238 62.8864 77.0289 66.0001 73.9291 66.0001C70.8293 66.0001 68.7344 62.8923 68.7344 56.4242ZM75.6607 56.4242V55.4167C75.6607 50.3761 74.9634 48.975 73.9291 48.975C72.8948 48.975 72.1975 50.3761 72.1975 55.4167V56.4242C72.1975 61.4647 72.8948 62.8629 73.9291 62.8629C74.9634 62.8629 75.6607 61.4647 75.6607 56.4242Z" fill="#BDDBFF"/>
<path d="M80.8008 46.1196H84.179L86.5815 53.2868L88.984 46.1196H92.3622V65.7208H89.0954V53.8772L86.6108 61.2971H86.5551L84.0706 53.8772V65.7208H80.8008V46.1196Z" fill="#BDDBFF"/>
<path d="M54.9534 61.9053H50.9453V65.9236H54.9534V61.9053Z" fill="#BDDBFF"/>
<path d="M18.9992 6.5444L30.88 0.217285H21.5365L16.9688 2.65237L18.9992 6.5444Z" fill="#BDDBFF"/>
<path d="M22.5773 13.412L47.3526 0.217285H38.0121L20.5469 9.51997L22.5773 13.412Z" fill="#BDDBFF"/>
<path d="M26.1525 20.2796L54.9506 4.94353V0.217285H54.4847L24.125 16.3846L26.1525 20.2796Z" fill="#BDDBFF"/>
<path d="M29.7336 27.1473L54.9513 13.7176V8.7417L27.7031 23.2524L29.7336 27.1473Z" fill="#BDDBFF"/>
<path d="M54.9523 17.5156L31.2845 30.1199L31.9848 31.4652L0.5 47.9586V51.4864L54.9523 22.4886V17.5156Z" fill="#BDDBFF"/>
<path d="M54.9523 26.2866L0.5 55.2844V60.2574L54.9523 31.2625V26.2866Z" fill="#BDDBFF"/>
<path d="M54.9523 35.0605L0.5 64.0554V65.9236H6.33345L54.9523 40.0335V35.0605Z" fill="#BDDBFF"/>
<path d="M54.9533 43.8315L13.4688 65.9236H22.8093L54.9533 48.8075V43.8315Z" fill="#BDDBFF"/>
<path d="M54.954 52.6055L29.9414 65.9236H39.2849L54.954 57.5785V52.6055Z" fill="#BDDBFF"/>
<path d="M15.7004 0.217285H0.5V47.9585L31.9848 31.4651L15.7004 0.217285Z" fill="#BDDBFF"/>
</g>
<defs>
<clipPath id="clip0_504_12035">
<rect width="117" height="66" fill="white" transform="translate(0.5)"/>
</clipPath>
</defs>
</svg>
