<svg width="94" height="58" viewBox="0 0 94 58" fill="none" xmlns="http://www.w3.org/2000/svg">
<path d="M41.1186 0.500106C27.451 0.515778 13.8285 2.05793 0.5 5.09757V46.0932C27.4546 40.7521 55.188 40.7521 82.1406 46.0932V5.09757C68.6807 2.02731 54.9204 0.485261 41.1166 0.500106H41.1186ZM41.3214 35.2389C37.6166 35.2389 34.0632 33.7602 31.4437 31.1289C28.8241 28.4967 27.3521 24.9282 27.3521 21.2068C27.3521 17.4845 28.8241 13.916 31.4437 11.2838C34.0632 8.6525 37.6166 7.17464 41.3214 7.17464C45.0262 7.17464 48.5796 8.65254 51.1992 11.2838C53.8188 13.916 55.2908 17.4845 55.2908 21.2068C55.2908 24.9282 53.8187 28.4975 51.1992 31.1289C48.5796 33.7602 45.0262 35.2389 41.3214 35.2389Z" fill="#115099"/>
<path d="M49.1966 21.2069C49.1966 25.5747 45.6713 29.116 41.3229 29.116C36.9745 29.116 33.4492 25.5749 33.4492 21.2069C33.4492 16.8383 36.9745 13.2979 41.3229 13.2979C45.6713 13.2979 49.1966 16.8381 49.1966 21.2069Z" fill="#115099"/>
<path d="M84.7628 14.7352V48.7237C60.7339 43.9625 36.064 43.4413 11.8594 47.1839V57.5002C38.814 52.1591 66.5474 52.1591 93.5 57.5002V16.5046C90.7884 15.8863 87.8706 15.286 84.7628 14.7344V14.7352Z" fill="#115099"/>
</svg>
