<svg width="79" height="78" viewBox="0 0 79 78" fill="none" xmlns="http://www.w3.org/2000/svg">
<path d="M67.7197 17.922L56.9384 16.1071L37.4328 45.6211H32.5363L24.8906 55.7105L13.2468 38.9271L7.01168 41.1732V0.22168H3.41793V11.0478H0.722656V13.7431H3.41793V23.2215H0.722656V25.9168H3.41793V35.4043H0.722656V38.0996H3.41793V47.578H0.722656V50.2733H3.41793V59.7518H0.722656V62.447H3.41793V71.4763H0.722656V75.0701H3.41793V77.7654H7.01168V75.0701H16.041V77.7654H18.7363V75.0701H28.2147V77.7654H30.91V75.0701H40.3975V77.7654H43.0928V75.0701H52.5712V77.7654H55.2665V75.0701H64.754V77.7654H67.4493V75.0701H78.2754V7.04102L67.7197 17.922ZM72.2748 50.2567C72.185 50.4454 71.9873 50.5712 71.7807 50.5712H65.285V62.8707C65.285 63.1762 65.0424 63.4188 64.737 63.4188H53.4796C53.1831 63.4188 52.9316 63.1762 52.9316 62.8707V50.5712H46.4359C46.2203 50.5712 46.0316 50.4454 45.9417 50.2567C45.8519 50.068 45.8878 49.8344 46.0226 49.6727L58.6905 34.8035C58.7893 34.6868 58.9421 34.6149 59.1038 34.6149C59.2655 34.6149 59.4182 34.6868 59.5171 34.8035L72.194 49.6727C72.3378 49.8344 72.3647 50.0591 72.2749 50.2567H72.2748Z" fill="#115099"/>
<path d="M42.7341 19.3418L30.0662 34.2109C29.9584 34.3367 29.8146 34.3996 29.6529 34.3996C29.4912 34.3996 29.3384 34.3277 29.2396 34.2109L16.5717 19.3418C16.4369 19.18 16.401 18.9554 16.4908 18.7578C16.5807 18.5691 16.7694 18.4433 16.985 18.4433H23.4807V6.14374C23.4807 5.84726 23.7233 5.5957 24.0287 5.5957H35.2772C35.5827 5.5957 35.8252 5.83829 35.8252 6.14374V18.4433H42.3209C42.5366 18.4433 42.7252 18.5691 42.8151 18.7578C42.9049 18.9464 42.878 19.18 42.7342 19.3418H42.7341Z" fill="#115099"/>
</svg>
