<svg width="17" height="16" viewBox="0 0 17 16" fill="none" xmlns="http://www.w3.org/2000/svg">
<g clip-path="url(#clip0_504_11921)">
<path d="M8.83359 4.40635C6.84609 4.40635 5.24297 6.00947 5.24297 7.99697C5.24297 9.98447 6.84609 11.5876 8.83359 11.5876C10.8211 11.5876 12.4242 9.98447 12.4242 7.99697C12.4242 6.00947 10.8211 4.40635 8.83359 4.40635ZM8.83359 10.3313C7.54921 10.3313 6.49921 9.28447 6.49921 7.99697C6.49921 6.70947 7.54609 5.6626 8.83359 5.6626C10.1211 5.6626 11.168 6.70947 11.168 7.99697C11.168 9.28447 10.118 10.3313 8.83359 10.3313ZM13.4086 4.25947C13.4086 4.7251 13.0336 5.09697 12.5711 5.09697C12.1055 5.09697 11.7336 4.72197 11.7336 4.25947C11.7336 3.79697 12.1086 3.42197 12.5711 3.42197C13.0336 3.42197 13.4086 3.79697 13.4086 4.25947ZM15.7867 5.10947C15.7336 3.9876 15.4773 2.99385 14.6555 2.1751C13.8367 1.35635 12.843 1.1001 11.7211 1.04385C10.5648 0.978223 7.09921 0.978223 5.94297 1.04385C4.82422 1.09697 3.83047 1.35322 3.00859 2.17197C2.18672 2.99072 1.93359 3.98447 1.87734 5.10635C1.81172 6.2626 1.81172 9.72822 1.87734 10.8845C1.93047 12.0063 2.18672 13.0001 3.00859 13.8188C3.83047 14.6376 4.82109 14.8938 5.94297 14.9501C7.09921 15.0157 10.5648 15.0157 11.7211 14.9501C12.843 14.897 13.8367 14.6407 14.6555 13.8188C15.4742 13.0001 15.7305 12.0063 15.7867 10.8845C15.8523 9.72822 15.8523 6.26572 15.7867 5.10947ZM14.293 12.1251C14.0492 12.7376 13.5773 13.2095 12.9617 13.4563C12.0398 13.822 9.85234 13.7376 8.83359 13.7376C7.81484 13.7376 5.62422 13.8188 4.70547 13.4563C4.09297 13.2126 3.62109 12.7407 3.37422 12.1251C3.00859 11.2032 3.09297 9.01572 3.09297 7.99697C3.09297 6.97822 3.01172 4.7876 3.37422 3.86885C3.61797 3.25635 4.08984 2.78447 4.70547 2.5376C5.62734 2.17197 7.81484 2.25635 8.83359 2.25635C9.85234 2.25635 12.043 2.1751 12.9617 2.5376C13.5742 2.78135 14.0461 3.25322 14.293 3.86885C14.6586 4.79072 14.5742 6.97822 14.5742 7.99697C14.5742 9.01572 14.6586 11.2063 14.293 12.1251Z" fill="white"/>
</g>
<defs>
<clipPath id="clip0_504_11921">
<rect width="14" height="16" fill="white" transform="translate(1.83203)"/>
</clipPath>
</defs>
</svg>
