<svg width="17" height="16" viewBox="0 0 17 16" fill="none" xmlns="http://www.w3.org/2000/svg">
<g clip-path="url(#clip0_504_11919)">
<path d="M4.96641 14H2.06328V4.65312H4.96641V14ZM3.51328 3.37812C2.58516 3.37812 1.83203 2.60938 1.83203 1.68125C1.83203 0.753125 2.58516 0 3.51328 0C4.44141 0 5.19453 0.753125 5.19453 1.68125C5.19453 2.60938 4.44141 3.37812 3.51328 3.37812ZM15.8289 14H12.932V9.45C12.932 8.36562 12.9102 6.975 11.4227 6.975C9.91328 6.975 9.68203 8.15312 9.68203 9.37187V14H6.78203V4.65312H9.56641V5.92812H9.60703C9.99453 5.19375 10.9414 4.41875 12.3539 4.41875C15.2914 4.41875 15.832 6.35313 15.832 8.86563V14H15.8289Z" fill="white"/>
</g>
<defs>
<clipPath id="clip0_504_11919">
<rect width="14" height="16" fill="white" transform="translate(1.83203)"/>
</clipPath>
</defs>
</svg>
