<svg width="25" height="25" viewBox="0 0 25 25" fill="none" xmlns="http://www.w3.org/2000/svg">
<g clip-path="url(#clip0_37_185)">
<path d="M18.4125 6.58797L14.5188 9.09501C14.3348 9.21353 14.204 9.39892 14.1541 9.61203C14.1042 9.82514 14.1391 10.0493 14.2514 10.2372L15.7354 12.7211C15.5206 13.1662 14.9748 14.0308 13.7474 14.7431C12.5167 15.4545 11.4927 15.4961 11.0036 15.4589L9.58847 12.9359C9.48169 12.7447 9.30473 12.6026 9.09505 12.5397C8.88536 12.4767 8.6594 12.4978 8.46498 12.5984L4.35197 14.7241C4.15704 14.8247 4.00902 14.9974 3.93932 15.2054C3.86963 15.4133 3.88376 15.6403 3.97871 15.8381L5.02256 18.0099C5.12628 18.1884 5.29192 18.3226 5.48806 18.3872C5.6884 18.4537 10.4491 19.9741 15.1888 17.2331C19.3213 14.8413 20.6509 10.8183 20.9513 9.69279C20.9952 9.52829 21.0173 9.426 21.0228 9.39869C21.0648 9.19658 21.0306 8.98607 20.9267 8.80769L19.563 6.82093C19.4396 6.63966 19.2501 6.51382 19.0352 6.47029C18.8202 6.42677 18.5968 6.469 18.4125 6.58797Z" fill="white"/>
</g>
<defs>
<clipPath id="clip0_37_185">
<rect width="20.23" height="20.23" fill="white" transform="translate(0 19.5459) rotate(-75.0538)"/>
</clipPath>
</defs>
</svg>
