<svg width="128" height="68" viewBox="0 0 128 68" fill="none" xmlns="http://www.w3.org/2000/svg">
<g clip-path="url(#clip0_37_251)">
<path fill-rule="evenodd" clip-rule="evenodd" d="M67 34.0018C67 52.7786 52.001 68 33.4987 68C14.9981 68 0 52.7777 0 34.0018C0 15.2223 14.9999 0 33.4987 0C52.0001 0 67 15.2214 67 34.0018Z" fill="white"/>
<path fill-rule="evenodd" clip-rule="evenodd" d="M87.3945 7C84.7899 7 82.9468 8.53891 82.9468 10.8375C82.9468 12.9298 84.4698 13.8454 86.1942 14.382C87.4789 14.7804 88.2422 15.0213 88.2422 15.8695C88.2422 16.5788 87.7146 16.9595 86.8352 16.9595C85.6692 16.9595 84.6562 16.2839 84.0442 15.541L82.4033 17.8574C83.1332 18.6702 84.8242 19.6212 87.0058 19.6212C89.9675 19.6212 91.6057 17.8742 91.6057 15.541C91.6057 13.3106 90.117 12.411 88.1903 11.7885C87.2081 11.4768 86.3129 11.2705 86.3129 10.5099C86.3129 10.0256 86.6857 9.66254 87.5651 9.66254C88.579 9.66254 89.4082 10.1469 89.8971 10.7171L91.4377 8.39901C90.5769 7.57023 89.2033 7 87.3945 7ZM96.1748 7.24084L91.7613 19.3786H95.211L95.7518 17.6325H100.234L100.793 19.3795H104.33L99.9137 7.24173L96.1748 7.24084ZM71 7.24173V14.9699C71 17.9619 72.7772 19.6212 76.2435 19.6212C79.6123 19.6212 81.4897 17.9619 81.4897 14.9699V7.24173H78.0893V13.9676C78.0893 15.2984 77.953 16.5956 76.2435 16.5956C74.5367 16.5956 74.4004 15.2984 74.4004 13.9676V7.24173H71ZM97.9519 10.1283H98.0522C98.1208 10.6472 98.2729 11.3741 98.4593 11.9443L99.3729 14.8663H96.632L97.5457 11.9443C97.7321 11.3741 97.8842 10.6472 97.9519 10.1283ZM87.056 21.5559C82.639 21.5559 80.5418 24.8931 80.5418 27.8842C80.5418 30.8575 82.639 34.1771 87.056 34.1771C91.4879 34.1771 93.5886 30.8575 93.5886 27.8842C93.5886 24.8931 91.4879 21.5559 87.056 21.5559ZM71.0528 21.7976V24.6169H73.9775V33.9362H77.3779V24.6169H80.3026V21.7985L71.0528 21.7976ZM109.728 21.7976L105.312 33.9353H108.762L109.303 32.1883H113.788L114.347 33.9353H117.881L113.464 21.7976H109.728ZM115.549 21.7976L119.981 29.6126V33.9353H123.565V29.6126L128 21.7976H124.38L122.772 24.7895C122.434 25.4288 121.959 26.3975 121.859 27.0368H121.791C121.691 26.3975 121.216 25.4288 120.877 24.7895L119.27 21.7985L115.549 21.7976ZM94.8065 21.7985V33.9362H99.1865C103.314 33.9362 105.784 31.5854 105.784 27.8682C105.784 24.0812 103.382 21.7985 99.1865 21.7985H94.8065ZM87.0401 24.5823C88.6994 24.5823 90.0835 25.706 90.0835 27.8842C90.0835 30.0447 88.6994 31.1533 87.0401 31.1533C85.4151 31.1533 84.0284 30.0447 84.0284 27.8842C84.0284 25.706 85.4151 24.5823 87.0401 24.5823ZM98.2069 24.5992H98.9341C101.116 24.5992 102.282 25.6714 102.282 27.8682C102.282 30.0633 101.116 31.1338 98.9341 31.1338H98.2069V24.5992ZM111.503 24.6851H111.605C111.674 25.2048 111.826 25.93 112.013 26.502L112.926 29.4249H110.185L111.099 26.502C111.283 25.93 111.435 25.2048 111.503 24.6851ZM84.1128 38.8088L84.0284 38.8257V41.9407H84.5428V39.9714L86.4255 42L86.4835 41.9894V38.8682H85.9691V40.8091L84.1128 38.8088ZM87.5888 38.8088L87.5071 38.8257V41.9407H88.0224V39.9714L89.9042 42L89.9622 41.9894V38.8682H89.4478V40.8091L87.5888 38.8088ZM118.228 38.8088L118.143 38.8257V41.9407H118.658V39.9714L120.541 42L120.599 41.9894V38.8682H120.087V40.8091L118.228 38.8088ZM78.7013 38.815C77.8527 38.815 77.1044 39.4508 77.1044 40.4062C77.1044 41.3536 77.8422 41.992 78.7013 41.992C79.1524 41.992 79.5015 41.8707 79.8225 41.6564V40.315H78.6274V40.7737H79.3309V41.3802C79.1524 41.4794 78.9818 41.5281 78.7215 41.5281C78.1262 41.5281 77.6531 41.0605 77.6531 40.4062C77.6531 39.7943 78.0418 39.3003 78.7242 39.3003C79.0029 39.3003 79.2913 39.3941 79.5332 39.5553L79.7671 39.1365C79.4593 38.9408 79.1445 38.815 78.7013 38.815ZM102.993 38.8177C102.051 38.8177 101.373 39.496 101.373 40.4062C101.373 41.3209 102.043 41.992 102.993 41.992C103.366 41.992 103.726 41.8654 103.975 41.7016L103.821 41.2562C103.579 41.4041 103.267 41.5006 102.998 41.5006C102.337 41.5006 101.925 41.0526 101.925 40.4062C101.925 39.7563 102.327 39.3082 102.988 39.3082C103.253 39.3082 103.547 39.4021 103.786 39.542L103.965 39.0966C103.671 38.916 103.336 38.8195 102.993 38.8177ZM106.076 38.8177C105.207 38.8177 104.54 39.4933 104.54 40.4062C104.54 41.3155 105.178 41.992 106.047 41.992C106.919 41.992 107.583 41.3155 107.583 40.4062C107.583 39.4933 106.948 38.8177 106.076 38.8177ZM108.463 38.8221L108.386 38.8283L108.258 41.9407H108.764L108.796 40.0972L109.752 41.5679H109.815L110.763 40.0998L110.804 41.9407H111.309L111.183 38.8283L111.099 38.8221L109.797 40.8595L108.463 38.8221ZM73.675 38.8257L72.2891 41.9407H72.8167L73.1087 41.2376H74.2975L74.5895 41.9407H75.1329L73.7488 38.8257H73.675ZM81.794 38.8257L80.4072 41.9407H80.9357L81.2294 41.2376H82.4165L82.7102 41.9407H83.2484L81.8678 38.8257H81.794ZM115.909 38.8257L114.521 41.9407H115.051L115.342 41.2376H116.534L116.823 41.9407H117.366L115.983 38.8257H115.909ZM113.07 38.8469C112.824 38.8469 112.575 38.8629 112.309 38.8974V41.9407H112.822V40.9401C112.918 40.9454 113.024 40.9534 113.121 40.9534C113.89 40.9534 114.318 40.508 114.318 39.8829C114.318 39.3056 113.898 38.8469 113.07 38.8469ZM90.9866 38.8682V41.9407H92.8218V41.4634H91.501V40.6125H92.6934V40.1485H91.501V39.3428H92.8218V38.8682H90.9866ZM93.6097 38.8682V39.3463H94.5656V41.9407H95.08V39.3463H96.0305V38.8682H93.6097ZM96.647 38.8682V39.3463H97.6028V41.9407H98.1172V39.3463H99.0704V38.8682H96.647ZM121.32 38.8682L122.378 40.647V41.9407H122.894V40.6497L123.951 38.8682H123.376L122.644 40.1671L121.909 38.8682H121.32ZM106.063 39.287C106.635 39.287 107.032 39.7642 107.032 40.4062C107.032 41.0446 106.635 41.5254 106.063 41.5254C105.491 41.5254 105.091 41.0446 105.091 40.4062C105.091 39.7642 105.491 39.287 106.063 39.287ZM113.158 39.3304C113.578 39.3304 113.785 39.596 113.785 39.8988C113.785 40.2477 113.573 40.4947 113.107 40.4947C113.019 40.4947 112.924 40.4868 112.822 40.4788V39.3543C112.926 39.3375 113.042 39.3304 113.158 39.3304ZM73.704 39.7943L74.1296 40.8215H73.2766L73.704 39.7943ZM81.823 39.7943L82.2512 40.8215H81.3947L81.823 39.7943ZM115.938 39.7943L116.364 40.8215H115.51L115.938 39.7943Z" fill="white"/>
</g>
<defs>
<clipPath id="clip0_37_251">
<rect width="128" height="68" fill="white"/>
</clipPath>
</defs>
</svg>
