<svg width="63" height="84" viewBox="0 0 63 84" fill="none" xmlns="http://www.w3.org/2000/svg">
<path d="M51.3804 35.4083L53.3859 30.002C53.822 28.8682 52.9498 27.6475 51.7289 27.6475H13.7097C7.6059 27.6475 2.54815 32.182 1.93743 38.2859L0.368145 52.7612C0.193574 54.1566 1.15281 55.4643 2.54815 55.8135C4.11743 56.1621 6.21054 56.4242 8.3035 56.6858L9.69823 79.6194C9.78521 81.5378 11.4421 83.0202 13.3606 83.0202H24.4352C26.3536 83.0202 27.9229 81.5379 28.0976 79.6194L30.016 40.1178C30.016 38.1123 31.6729 36.5424 33.5913 36.5424H49.7233C50.5074 36.5424 51.1181 36.1063 51.3797 35.4086L51.3804 35.4083Z" fill="#115099"/>
<path d="M31.0619 12.3005C31.0619 18.9943 25.6356 24.4213 18.9411 24.4213C12.2473 24.4213 6.82031 18.9943 6.82031 12.3005C6.82031 5.60664 12.2473 0.179688 18.9411 0.179688C25.6356 0.179688 31.0619 5.60664 31.0619 12.3005Z" fill="#115099"/>
<path d="M60.0143 43.4307H39.2607C37.7784 43.4307 36.6445 44.6514 36.6445 46.0468V80.3164C36.6445 81.7987 37.8653 82.9326 39.2607 82.9326H60.0143C61.4966 82.9326 62.6304 81.7118 62.6304 80.3164V46.0468C62.6304 44.6521 61.409 43.4313 60.0143 43.4313V43.4307ZM42.7487 78.6595C41.6149 78.6595 40.6557 77.7002 40.6557 76.5665C40.6557 75.4328 41.615 74.4736 42.7487 74.4736C43.8824 74.4736 44.8416 75.4328 44.8416 76.5665C44.8416 77.7002 43.9694 78.6595 42.7487 78.6595ZM42.7487 72.5556C41.6149 72.5556 40.6557 71.5964 40.6557 70.4627C40.6557 69.3289 41.615 68.3697 42.7487 68.3697C43.8824 68.3697 44.8416 69.3289 44.8416 70.4627C44.8416 71.5964 43.9694 72.5556 42.7487 72.5556ZM42.7487 66.3641C41.6149 66.3641 40.6557 65.4049 40.6557 64.2711C40.6557 63.1374 41.615 62.1782 42.7487 62.1782C43.8824 62.1782 44.8416 63.1374 44.8416 64.2711C44.8416 65.4925 43.9694 66.3641 42.7487 66.3641ZM49.6378 78.6595C48.504 78.6595 47.5448 77.7002 47.5448 76.5665C47.5448 75.4328 48.5041 74.4736 49.6378 74.4736C50.7715 74.4736 51.7308 75.4328 51.7308 76.5665C51.7308 77.7002 50.7715 78.6595 49.6378 78.6595ZM49.6378 72.5556C48.504 72.5556 47.5448 71.5964 47.5448 70.4627C47.5448 69.3289 48.5041 68.3697 49.6378 68.3697C50.7715 68.3697 51.7308 69.3289 51.7308 70.4627C51.7308 71.5964 50.7715 72.5556 49.6378 72.5556ZM49.6378 66.3641C48.504 66.3641 47.5448 65.4049 47.5448 64.2711C47.5448 63.1374 48.5041 62.1782 49.6378 62.1782C50.7715 62.1782 51.7308 63.1374 51.7308 64.2711C51.7308 65.4925 50.7715 66.3641 49.6378 66.3641ZM56.4394 78.6595C55.3056 78.6595 54.3464 77.7002 54.3464 76.5665C54.3464 75.4328 55.3057 74.4736 56.4394 74.4736C57.5731 74.4736 58.5324 75.4328 58.5324 76.5665C58.5324 77.7002 57.5731 78.6595 56.4394 78.6595ZM56.4394 72.5556C55.3056 72.5556 54.3464 71.5964 54.3464 70.4627C54.3464 69.3289 55.3057 68.3697 56.4394 68.3697C57.5731 68.3697 58.5324 69.3289 58.5324 70.4627C58.5324 71.5964 57.5731 72.5556 56.4394 72.5556ZM56.4394 66.3641C55.3056 66.3641 54.3464 65.4049 54.3464 64.2711C54.3464 63.1374 55.3057 62.1782 56.4394 62.1782C57.5731 62.1782 58.5324 63.1374 58.5324 64.2711C58.5324 65.4925 57.5731 66.3641 56.4394 66.3641ZM58.5324 58.0803C58.5324 58.6034 58.0962 58.9525 57.6601 58.9525H41.6153C41.0922 58.9525 40.7431 58.5164 40.7431 58.0803V48.7502C40.7431 48.2271 41.1792 47.8779 41.6153 47.8779H57.6601C58.1832 47.8779 58.5324 48.314 58.5324 48.7502V58.0803Z" fill="#115099"/>
<path d="M52.9485 52.7611H52.4248C52.2502 52.7611 52.0763 52.6741 51.9887 52.5865C51.9017 52.4995 51.8141 52.3249 51.8141 52.1504C51.8141 51.8888 52.0757 51.6273 52.4248 51.6273H53.1225C53.2971 51.6273 53.471 51.7142 53.471 51.8888C53.471 52.0634 53.6456 52.1504 53.7326 52.1504H54.5173C54.6042 52.1504 54.6918 52.1504 54.7788 52.0634C54.8658 51.9764 54.8658 51.8888 54.8658 51.8018C54.7788 51.0172 54.1681 50.4065 53.3835 50.3195V49.7088C53.3835 49.5342 53.2089 49.4473 53.1219 49.4473H52.4242C52.2496 49.4473 52.1627 49.6218 52.1627 49.7088V50.3195C51.2034 50.4941 50.5057 51.3657 50.5934 52.4125C50.6804 53.3717 51.5526 54.1563 52.5988 54.1563H53.1219C53.2965 54.1563 53.4705 54.2433 53.5581 54.3309C53.645 54.4179 53.7326 54.5924 53.7326 54.767C53.7326 55.0286 53.4711 55.2901 53.1219 55.2901H52.4243C52.2497 55.2901 52.0757 55.2031 52.0757 55.0286C52.0757 54.854 51.9011 54.767 51.8142 54.767H51.0295C50.9425 54.767 50.8549 54.767 50.7679 54.854C50.681 54.941 50.681 55.0286 50.681 55.1156C50.7679 55.9002 51.3786 56.5109 52.1633 56.5979V57.2086C52.1633 57.3831 52.3379 57.4701 52.4248 57.4701H53.1225C53.2971 57.4701 53.3841 57.2956 53.3841 57.2086V56.5979C54.2563 56.4233 54.8664 55.7256 54.9534 54.9409C55.0404 54.4178 54.8664 53.8947 54.4303 53.4586C53.9948 52.9355 53.5586 52.7609 52.9485 52.7609L52.9485 52.7611Z" fill="#115099"/>
<path d="M46.8463 52.7611H46.3232C46.1487 52.7611 45.9747 52.6741 45.8871 52.5865C45.8001 52.4995 45.7125 52.3249 45.7125 52.1504C45.7125 51.8888 45.9741 51.6273 46.3232 51.6273H47.0209C47.1955 51.6273 47.3694 51.7142 47.3694 51.8888C47.3694 52.0634 47.544 52.1504 47.631 52.1504H48.4157C48.5026 52.1504 48.5902 52.1504 48.6772 52.0634C48.7642 51.9764 48.7642 51.8888 48.7642 51.8018C48.6772 51.0172 48.0665 50.4065 47.2819 50.3195V49.7088C47.2819 49.5342 47.1073 49.4473 47.0203 49.4473H46.3226C46.1481 49.4473 46.0611 49.6218 46.0611 49.7088V50.3195C45.1019 50.4941 44.4041 51.3657 44.4918 52.4125C44.5788 53.3717 45.451 54.1563 46.4972 54.1563H47.0204C47.1949 54.1563 47.3689 54.2433 47.4565 54.3309C47.5435 54.4179 47.631 54.5924 47.631 54.767C47.631 55.0286 47.3695 55.2901 47.0204 55.2901H46.3227C46.1481 55.2901 45.9741 55.2031 45.9741 55.0286C45.9741 54.854 45.7996 54.767 45.7126 54.767H44.9279C44.841 54.767 44.7534 54.767 44.6664 54.854C44.5794 54.941 44.5794 55.0286 44.5794 55.1156C44.6664 55.9002 45.2771 56.5109 46.0617 56.5979V57.2086C46.0617 57.3831 46.2363 57.4701 46.3233 57.4701H47.0209C47.1955 57.4701 47.2825 57.2956 47.2825 57.2086V56.5979C48.1547 56.4233 48.7648 55.7256 48.8518 54.9409C48.9388 54.4178 48.7648 53.8947 48.3287 53.4586C47.8932 52.9355 47.3701 52.7609 46.8464 52.7609L46.8463 52.7611Z" fill="#115099"/>
</svg>
