<svg width="88" height="100" viewBox="0 0 88 100" fill="none" xmlns="http://www.w3.org/2000/svg">
<path d="M52.2933 81.9438C52.2933 91.7745 60.2805 99.7616 70.1111 99.7616C79.9417 99.7616 87.9289 91.7744 87.9289 81.9438C87.9289 72.113 79.9417 64.126 70.1111 64.126C60.1783 64.2281 52.2933 72.1132 52.2933 81.9438ZM63.8647 89.0088C64.0697 88.3945 64.1718 87.8824 64.3768 87.2681C64.5818 86.551 64.7861 86.551 65.4011 86.8588C66.4254 87.371 67.5519 87.6781 68.7803 87.8831C69.4975 87.9853 70.316 87.8831 70.9311 87.576C72.2625 86.9617 72.4668 85.5282 71.3404 84.6067C70.9311 84.2996 70.5211 84.0946 70.1118 83.8896C68.9854 83.3775 67.7568 82.9682 66.7326 82.3539C64.9919 81.3296 63.8654 79.8961 63.9676 77.7461C64.0697 75.2883 65.5033 73.8547 67.654 73.0353C68.5754 72.7282 68.5754 72.7282 68.5754 71.8067V70.8853C68.5754 70.1681 68.6776 70.066 69.3947 70.066H70.1119C71.6476 70.066 71.6476 70.066 71.6476 71.6017C71.6476 72.7281 71.6476 72.7281 72.774 72.8303C73.5933 72.9324 74.4126 73.2396 75.129 73.5474C75.5383 73.7524 75.7433 74.0596 75.5383 74.4689C75.3333 75.0832 75.129 75.8003 74.924 76.4147C74.719 77.029 74.5148 77.1318 73.8998 76.8239C72.6712 76.2097 71.442 76.0047 70.1111 76.1068C69.804 76.1068 69.394 76.2089 69.0868 76.3118C67.9604 76.8239 67.7554 78.0525 68.7797 78.8718C69.2918 79.2811 69.804 79.589 70.4183 79.7932C71.4426 80.2025 72.4661 80.6125 73.3875 81.1246C76.4597 82.7632 77.2789 86.6539 75.1282 89.2139C74.3089 90.1353 73.3875 90.7496 72.159 91.1597C71.6468 91.2618 71.4418 91.569 71.4418 92.0811V93.6168C71.4418 94.129 71.2368 94.334 70.7247 94.334H68.984C68.4718 94.334 68.2668 94.0268 68.2668 93.5147V92.3882C68.2668 91.5689 68.2668 91.4668 67.4475 91.3639C66.4232 91.1589 65.3997 90.9547 64.4783 90.5446C63.6597 89.9311 63.6597 89.8282 63.8647 89.0089L63.8647 89.0088ZM17.9895 31.2552C16.2488 25.2138 18.0916 24.3944 19.628 24.4967C18.5016 21.3224 18.5016 18.2503 19.2188 15.3831C20.038 12.0039 21.881 9.23869 23.9295 7.19087C25.2609 5.85945 26.6945 4.63087 28.2303 3.6065C29.4589 2.68507 30.8925 1.96794 32.4289 1.45574C33.6575 1.04645 34.8867 0.841448 36.2175 0.738591C40.4161 0.329302 43.5903 1.45574 45.8433 2.78641C49.2225 4.62924 50.5541 7.08721 50.5541 7.08721C50.5541 7.08721 59.0533 7.7015 55.3669 25.5192C56.4933 25.9285 57.3127 27.465 55.9812 32.1748C54.3426 37.9091 52.909 38.3192 51.9876 37.7041C50.8611 43.9505 47.4818 51.9377 36.7298 52.3469C25.7726 51.5276 22.2912 43.3355 21.2676 36.9869C20.3447 36.8869 19.2183 35.6583 17.9897 31.2547L17.9895 31.2552ZM37.0359 85.6296H0.171875C0.376876 70.2696 -0.237413 62.0776 9.69471 58.4936C18.7061 55.0122 24.1333 51.5308 24.1333 51.5308L31.0961 73.5468L32.0176 76.516L35.0897 67.7096C27.9219 57.7768 35.6019 57.2646 36.9326 57.2646C38.264 57.2646 45.944 57.7768 38.7754 67.7096L41.8476 76.516L42.769 73.5468L49.7319 51.5308C49.7319 51.5308 55.1591 55.0122 64.1704 58.4936C65.1947 58.8008 66.0133 59.2108 66.8327 59.7222C62.0199 60.3365 57.5141 62.5894 53.9304 66.0708C49.7319 70.2694 47.3769 75.9016 47.3769 81.943C47.3769 83.1716 47.479 84.4008 47.684 85.6294L37.0359 85.6296Z" fill="#115099"/>
</svg>
