<svg width="71" height="88" viewBox="0 0 71 88" fill="none" xmlns="http://www.w3.org/2000/svg">
<path d="M50.9908 8.84324C49.7755 5.90164 46.834 -0.162652 34.0008 0.00333929C21.1824 0.183376 17.8828 11.2738 17.8828 11.2738C15.2721 16.4251 16.0324 23.3726 17.4412 29.0081C17.842 31.4813 18.6839 34.0914 19.8858 36.5906C20.4375 37.9993 20.8383 38.8277 20.8383 38.8277V38.4001C24.0292 44.0356 29.0838 48.5946 35.1062 48.5946C44.7879 48.5946 51.9717 36.8266 52.9527 27.7662C53.1595 26.9378 53.3803 26.0808 53.5877 25.1422C57.1362 9.63036 52.2057 11.7993 50.9903 8.84354L50.9908 8.84324ZM35.1063 44.9503C27.938 44.9503 21.1979 34.729 20.8384 26.4421V25.0467C21.0726 20.0329 23.9052 15.6819 28.0067 13.3196C28.2835 13.3062 28.545 13.3062 28.8218 13.3196C33.8222 13.5264 39.9681 14.3414 43.4212 14.8524C43.9322 14.9217 44.4157 15.0866 44.8707 15.3086C45.9619 16.3305 46.9145 17.5183 47.6474 18.8304C48.6559 21.8145 49.1255 24.8802 49.2904 27.7109C48.339 35.7369 41.9159 44.9501 35.1063 44.9501V44.9503Z" fill="#115099"/>
<path d="M65.0366 55.749L54.8982 48.2772C53.006 46.8818 50.7128 46.1367 48.3649 46.1367H46.1552C45.0499 52.7108 40.6997 62.4914 35.4923 62.4914C30.2985 62.4914 25.9481 52.713 24.8429 46.1367H22.6331C20.2852 46.1367 17.9927 46.8818 16.0998 48.2772L5.96141 55.749C2.3982 58.3731 0.285156 62.5165 0.285156 66.9367V81.4814C0.285156 84.6449 2.8398 87.1997 6.00345 87.1997H64.9958C68.1593 87.1997 70.7141 84.6438 70.7141 81.4814L70.7147 66.9367C70.7135 62.5165 68.6004 58.3731 65.0372 55.749H65.0366ZM58.5581 69.5333H49.3448C48.9172 69.5333 48.5711 69.1871 48.5711 68.7595C48.5711 68.3319 48.916 67.9858 49.3448 67.9858H49.7317C49.745 67.9451 49.759 67.9025 49.7876 67.8617L53.7102 62.323C53.8203 62.1569 54.0551 62.1569 54.1652 62.323L58.0878 67.8617C58.1152 67.9025 58.1286 67.9451 58.1438 67.9858H58.558C58.9722 67.9858 59.3317 68.3307 59.3317 68.7595C59.3317 69.1884 58.9734 69.5333 58.558 69.5333H58.5581Z" fill="#115099"/>
</svg>
