<svg width="83" height="89" viewBox="0 0 83 89" fill="none" xmlns="http://www.w3.org/2000/svg">
<path d="M40.7546 0.952148C29.842 0.952148 21.4814 11.3648 21.4814 23.7681C21.4814 36.171 29.8427 46.5842 40.7546 46.5842C51.6672 46.5842 60.0604 36.1708 60.0604 23.7681C60.0604 11.3655 51.6679 0.952148 40.7546 0.952148ZM32.4669 48.5682C16.6543 50.5832 3.87741 57.5775 0.936447 67.5703C0.833684 67.9225 0.833684 68.3031 0.936447 68.6553C2.67774 74.5729 7.98731 79.416 15.1615 82.8226C22.335 86.2285 31.483 88.2476 41.485 88.2476C51.4855 88.2476 60.6657 86.2285 67.8394 82.8226C75.0129 79.4167 80.3233 74.5731 82.0644 68.6553C82.1672 68.3031 82.1672 67.9225 82.0644 67.5703C79.124 57.5769 66.3482 50.5826 50.534 48.5682C49.8805 48.4865 49.1931 48.7384 48.7558 49.2193L41.4845 57.3417L34.2452 49.2193C33.8079 48.7384 33.1204 48.4865 32.467 48.5682H32.4669ZM56.6623 61.712H60.7266V67.6643H66.823V71.632H60.7266V77.5843H56.6623V71.632H50.5659V67.6643H56.6623V61.712Z" fill="#115099"/>
</svg>
