<svg width="17" height="16" viewBox="0 0 17 16" fill="none" xmlns="http://www.w3.org/2000/svg">
<g clip-path="url(#clip0_504_11922)">
<g clip-path="url(#clip1_504_11922)">
<path d="M15.7696 4.11378C15.5946 3.45545 15.0807 2.93878 14.4279 2.76378C13.2446 2.44434 8.50017 2.44434 8.50017 2.44434C8.50017 2.44434 3.75573 2.44434 2.57239 2.76378C1.91962 2.93878 1.40573 3.45545 1.23073 4.11378C0.914062 5.30545 0.914062 7.78878 0.914062 7.78878C0.914062 7.78878 0.914062 10.2721 1.23073 11.4638C1.40573 12.1193 1.91962 12.6166 2.57239 12.7916C3.75573 13.111 8.50017 13.111 8.50017 13.111C8.50017 13.111 13.2446 13.111 14.4279 12.7916C15.0807 12.6166 15.5946 12.1193 15.7696 11.4638C16.0863 10.2721 16.0863 7.78878 16.0863 7.78878C16.0863 7.78878 16.0863 5.30267 15.7696 4.11378ZM6.94739 10.0443V5.53323L10.9113 7.78878L6.94739 10.0443Z" fill="white"/>
</g>
</g>
<defs>
<clipPath id="clip0_504_11922">
<rect width="16" height="16" fill="white" transform="translate(0.5)"/>
</clipPath>
<clipPath id="clip1_504_11922">
<rect width="16" height="14.2222" fill="white" transform="translate(0.5 0.666504)"/>
</clipPath>
</defs>
</svg>
